<svg width="18" height="18" viewBox="0 0 18 18" fill="none" xmlns="http://www.w3.org/2000/svg">
<path d="M17.4842 14.1203C18.1696 14.8057 18.1696 15.9208 17.4842 16.6062C17.4832 16.6073 17.4821 16.6083 17.481 16.6094L16.2783 17.7971C16.1412 17.9324 15.9627 18 15.7843 18C15.6028 18 15.4215 17.9302 15.2839 17.7909C15.0112 17.5146 15.0139 17.0694 15.2902 16.7966L15.9939 16.1015H4.70999C3.15913 16.1015 1.89749 14.8399 1.89749 13.289V1.98811L1.19602 2.68025C0.919572 2.95298 0.474352 2.94996 0.201617 2.67352C-0.0711182 2.39707 -0.068097 1.95185 0.208346 1.67912L1.39624 0.507293C2.07973 -0.166992 3.19181 -0.166992 3.8753 0.507293L5.06319 1.67912C5.33964 1.95185 5.34266 2.39707 5.06992 2.67352C4.93232 2.81291 4.75091 2.88281 4.56936 2.88281C4.39097 2.88281 4.21258 2.81538 4.07553 2.68025L3.30374 1.91876V13.289C3.30374 14.0644 3.93463 14.6953 4.70999 14.6953H16.0652L15.2902 13.9299C15.0139 13.6571 15.011 13.2119 15.2839 12.9356C15.5568 12.6594 16.002 12.6565 16.2783 12.9294L17.481 14.1171C17.4821 14.1182 17.4832 14.1192 17.4842 14.1203ZM15.8897 0H6.7842C6.39487 0 6.0797 0.316406 6.08108 0.705733C6.08259 1.093 6.39693 1.40625 6.7842 1.40625H15.8897C16.278 1.40625 16.5928 1.721 16.5928 2.10937V11.25C16.5928 11.6372 16.906 11.9517 17.2933 11.9531C17.6826 11.9545 17.999 11.6393 17.999 11.25V2.10937C17.999 0.94441 17.0546 0 15.8897 0ZM10.335 12.0547C10.7233 12.0547 11.0381 11.74 11.0381 11.3516V8.22215C11.0381 7.15593 10.1707 6.28856 9.10451 6.28856C8.63745 6.28856 8.20857 6.455 7.87404 6.73172C7.53951 6.455 7.11063 6.28856 6.64358 6.28856C6.37537 6.28856 6.11967 6.34363 5.88731 6.44278C5.7622 6.32825 5.59603 6.2578 5.41311 6.2578C5.02474 6.2578 4.70999 6.57256 4.70999 6.96092V11.3554C4.70999 11.7438 5.02474 12.0586 5.41311 12.0586C5.80148 12.0586 6.11623 11.7438 6.11623 11.3554V8.22215C6.11623 7.93143 6.35285 7.69481 6.64358 7.69481C6.9343 7.69481 7.17092 7.93143 7.17092 8.22215V11.3554C7.17092 11.7438 7.48568 12.0586 7.87404 12.0586C8.26241 12.0586 8.57717 11.7438 8.57717 11.3554V8.22215C8.57717 7.93143 8.81378 7.69481 9.10451 7.69481C9.39523 7.69481 9.63185 7.93143 9.63185 8.22215V11.3516C9.63185 11.74 9.94661 12.0547 10.335 12.0547ZM13.5254 3.79687C13.5217 3.79687 13.5181 3.79742 13.5144 3.79742C13.5108 3.79742 13.5073 3.79687 13.5036 3.79687C12.6094 3.79687 11.8818 4.52526 11.8818 5.42051C11.8818 5.80873 12.1966 6.12363 12.585 6.12363C12.9733 6.12363 13.2881 5.80873 13.2881 5.42051C13.2881 5.30268 13.3868 5.20311 13.5036 5.20311C13.5073 5.20311 13.5108 5.20257 13.5145 5.20257C13.5181 5.20257 13.5217 5.20311 13.5254 5.20311C13.6373 5.20311 13.7326 5.29458 13.7403 5.40595C13.7264 5.45745 13.6186 5.77591 12.9449 6.51708C12.527 6.97658 12.1164 7.3508 12.1124 7.35437C11.8972 7.54965 11.8244 7.85727 11.9291 8.12822C12.0337 8.39931 12.2944 8.57811 12.585 8.57811H14.4834C14.8718 8.57811 15.1865 8.26335 15.1865 7.87498C15.1865 7.48662 14.8718 7.17186 14.4834 7.17186H14.2416C14.8659 6.43688 15.1471 5.8899 15.1471 5.42051C15.1471 4.52526 14.4195 3.79687 13.5254 3.79687Z" fill="#878787"/>
</svg>
