<svg width="18" height="11" viewBox="0 0 18 11" fill="none" xmlns="http://www.w3.org/2000/svg">
<path d="M0 6.74957V9.28894C0 9.58018 0.236109 9.81629 0.527344 9.81629H1.28064V10.4373C1.28064 10.7285 1.51675 10.9646 1.80798 10.9646C2.09921 10.9646 2.33532 10.7285 2.33532 10.4373V9.81629H15.7158V10.4373C15.7158 10.7285 15.9519 10.9646 16.2432 10.9646C16.5344 10.9646 16.7705 10.7285 16.7705 10.4373V9.81629H17.4727C17.7639 9.81629 18 9.58018 18 9.28894V6.74957H0Z" fill="#878787"/>
<path d="M18 5.6948V4.56165C18 3.68931 17.2903 2.97961 16.418 2.97961H1.58203C0.709699 2.97961 0 3.68931 0 4.56165V5.6948H18Z" fill="#878787"/>
<path d="M9.52734 1.92495H15.6135V0.527344C15.6135 0.236109 15.3774 0 15.0862 0H9.52734V1.92495Z" fill="#878787"/>
<path d="M8.4729 1.92495V0H2.91406C2.62283 0 2.38672 0.236109 2.38672 0.527344V1.92495H8.4729Z" fill="#878787"/>
</svg>
