<svg width="130" height="130" viewBox="0 0 130 130" fill="none" xmlns="http://www.w3.org/2000/svg">
<path d="M34.2773 0C15.3758 0 0 15.3758 0 34.2773C0 53.1789 15.3758 68.5547 34.2773 68.5547C53.0862 68.5547 68.5547 53.3663 68.5547 34.2773C68.5547 15.6028 53.3355 0 34.2773 0ZM38.0859 52.6188V57.1289C38.0859 59.234 36.3825 60.9375 34.2773 60.9375C32.1722 60.9375 30.4688 59.234 30.4688 57.1289V52.5812C28.3814 51.8337 26.4933 50.5583 25.139 48.753C23.8781 47.0681 24.2166 44.6804 25.8977 43.4195C27.5938 42.1698 29.9777 42.4935 31.2312 44.1782C31.9564 45.1488 33.0685 45.7031 34.2773 45.7031C36.3787 45.7031 38.0859 43.9959 38.0859 41.8945C38.0859 39.7932 36.3787 38.0859 34.2773 38.0859C27.9769 38.0859 22.8516 32.9606 22.8516 26.6602C22.8516 21.7014 26.0452 17.5134 30.4688 15.9359V11.4258C30.4688 9.32064 32.1722 7.61719 34.2773 7.61719C36.3825 7.61719 38.0859 9.32064 38.0859 11.4258V15.9735C40.1733 16.721 42.0613 17.9964 43.4157 19.8016C44.6766 21.4866 44.3381 23.8743 42.657 25.1352C40.9721 26.3996 38.5917 26.0612 37.3235 24.3765C35.3336 21.7171 30.4688 23.35 30.4688 26.6602C30.4688 28.7615 32.176 30.4688 34.2773 30.4688C40.5778 30.4688 45.7031 35.5941 45.7031 41.8945C45.7031 46.8533 42.5095 51.0412 38.0859 52.6188Z" fill="#BBA182"/>
<path d="M126.191 15.2344H71.4693C73.9144 20.0147 75.4216 25.1865 75.9335 30.4688H110.449C112.554 30.4688 114.258 32.1722 114.258 34.2773V64.7461C114.258 66.8512 112.554 68.5547 110.449 68.5547H58.2629C51.9424 72.9694 45.2623 75.3068 38.0859 75.9362V126.191C38.0859 128.297 39.7894 130 41.8945 130H126.191C128.297 130 130 128.297 130 126.191V19.043C130 16.9378 128.297 15.2344 126.191 15.2344ZM79.9805 76.1719H87.5977C89.7028 76.1719 91.4062 77.8753 91.4062 79.9805C91.4062 82.0856 89.7028 83.7891 87.5977 83.7891H79.9805C77.8753 83.7891 76.1719 82.0856 76.1719 79.9805C76.1719 77.8753 77.8753 76.1719 79.9805 76.1719ZM79.9805 91.4062H87.5977C89.7028 91.4062 91.4062 93.1097 91.4062 95.2148C91.4062 97.32 89.7028 99.0234 87.5977 99.0234H79.9805C77.8753 99.0234 76.1719 97.32 76.1719 95.2148C76.1719 93.1097 77.8753 91.4062 79.9805 91.4062ZM64.7461 114.258H57.1289C55.0238 114.258 53.3203 112.554 53.3203 110.449C53.3203 108.344 55.0238 106.641 57.1289 106.641H64.7461C66.8512 106.641 68.5547 108.344 68.5547 110.449C68.5547 112.554 66.8512 114.258 64.7461 114.258ZM64.7461 99.0234H57.1289C55.0238 99.0234 53.3203 97.32 53.3203 95.2148C53.3203 93.1097 55.0238 91.4062 57.1289 91.4062H64.7461C66.8512 91.4062 68.5547 93.1097 68.5547 95.2148C68.5547 97.32 66.8512 99.0234 64.7461 99.0234ZM64.7461 83.7891H57.1289C55.0238 83.7891 53.3203 82.0856 53.3203 79.9805C53.3203 77.8753 55.0238 76.1719 57.1289 76.1719H64.7461C66.8512 76.1719 68.5547 77.8753 68.5547 79.9805C68.5547 82.0856 66.8512 83.7891 64.7461 83.7891ZM110.449 114.258H79.9805C77.8753 114.258 76.1719 112.554 76.1719 110.449C76.1719 108.344 77.8753 106.641 79.9805 106.641H110.449C112.554 106.641 114.258 108.344 114.258 110.449C114.258 112.554 112.554 114.258 110.449 114.258ZM110.449 99.0234H102.832C100.727 99.0234 99.0234 97.32 99.0234 95.2148C99.0234 93.1097 100.727 91.4062 102.832 91.4062H110.449C112.554 91.4062 114.258 93.1097 114.258 95.2148C114.258 97.32 112.554 99.0234 110.449 99.0234ZM110.449 83.7891H102.832C100.727 83.7891 99.0234 82.0856 99.0234 79.9805C99.0234 77.8753 100.727 76.1719 102.832 76.1719H110.449C112.554 76.1719 114.258 77.8753 114.258 79.9805C114.258 82.0856 112.554 83.7891 110.449 83.7891Z" fill="#BBA182"/>
<path d="M106.643 60.9375V38.0859H75.8538C75.0713 46.6621 71.7766 54.5672 66.5076 60.9375H106.643Z" fill="#BBA182"/>
</svg>
