<svg width="28" height="28" viewBox="0 0 28 28" fill="none" xmlns="http://www.w3.org/2000/svg">
<path d="M3.20891 0C1.43676 0 0.000610352 1.43619 0.000610352 3.20838V13.4169H13.4172V0H3.20891ZM8.45886 7.87512H7.29221V9.04181C7.29221 9.52481 6.90021 9.91682 6.41722 9.91682C5.93422 9.91682 5.54222 9.52481 5.54222 9.04181V7.87512H4.37557C3.89257 7.87512 3.50058 7.48312 3.50058 7.00011C3.50058 6.5171 3.89257 6.12509 4.37557 6.12509H5.54222V4.95841C5.54222 4.4754 5.93422 4.0834 6.41722 4.0834C6.90021 4.0834 7.29221 4.4754 7.29221 4.95841V6.12509H8.45886C8.94186 6.12509 9.33386 6.5171 9.33386 7.00011C9.33386 7.48312 8.94186 7.87512 8.45886 7.87512Z" fill="#1A1821"/>
<path d="M6.10352e-05 14.583V24.7915C6.10352e-05 26.5636 1.43621 27.9998 3.20836 27.9998H13.4166V14.583H6.10352e-05ZM8.78498 22.1314C9.12681 22.4733 9.12681 23.0274 8.78498 23.3693C8.61465 23.5396 8.39065 23.6248 8.16665 23.6248C7.94265 23.6248 7.71865 23.5396 7.54832 23.3681L6.70833 22.5281L5.86834 23.3681C5.69801 23.5384 5.47401 23.6248 5.25001 23.6248C5.02601 23.6248 4.80202 23.5396 4.63168 23.3681C4.28985 23.0263 4.28985 22.4721 4.63168 22.1303L5.47168 21.2903L4.63168 20.4502C4.28985 20.1084 4.28985 19.5542 4.63168 19.2124C4.97351 18.8706 5.52768 18.8706 5.86951 19.2124L6.7095 20.0524L7.54949 19.2124C7.89132 18.8706 8.44548 18.8706 8.78731 19.2124C9.12914 19.5542 9.12914 20.1084 8.78731 20.4502L7.94732 21.2903L8.78498 22.1314Z" fill="#1A1821"/>
<path d="M24.7915 0.000488281H14.5833V13.4174H27.9998V3.20887C27.9998 1.43668 26.5636 0.000488281 24.7915 0.000488281ZM24.2082 7.58394H18.9582C18.4752 7.58394 18.0832 7.19193 18.0832 6.70892C18.0832 6.22592 18.4752 5.83391 18.9582 5.83391H24.2082C24.6912 5.83391 25.0832 6.22592 25.0832 6.70892C25.0832 7.19193 24.6912 7.58394 24.2082 7.58394Z" fill="#1A1821"/>
<path d="M14.5835 14.583V27.9998H24.7917C26.5639 27.9998 28 26.5636 28 24.7915V14.583H14.5835ZM23.9167 23.9164H18.6668C18.1838 23.9164 17.7918 23.5244 17.7918 23.0414C17.7918 22.5584 18.1838 22.1664 18.6668 22.1664H23.9167C24.3997 22.1664 24.7917 22.5584 24.7917 23.0414C24.7917 23.5244 24.3997 23.9164 23.9167 23.9164ZM23.9167 20.4164H18.6668C18.1838 20.4164 17.7918 20.0244 17.7918 19.5414C17.7918 19.0584 18.1838 18.6664 18.6668 18.6664H23.9167C24.3997 18.6664 24.7917 19.0584 24.7917 19.5414C24.7917 20.0244 24.3997 20.4164 23.9167 20.4164Z" fill="#1A1821"/>
</svg>
