<svg width="12" height="8" viewBox="0 0 12 8" fill="none" xmlns="http://www.w3.org/2000/svg">
<path d="M11.2817 1.10434L10.3042 0.188526C10.1702 0.0628579 10.0072 0 9.81559 0C9.62381 0 9.4608 0.0628579 9.32677 0.188526L4.61168 4.6128L2.49853 2.62623C2.36435 2.50052 2.20144 2.43773 2.00984 2.43773C1.81811 2.43773 1.6552 2.50052 1.52102 2.62623L0.543533 3.54207C0.409351 3.66776 0.342285 3.82044 0.342285 4.00005C0.342285 4.17952 0.409351 4.33233 0.543533 4.458L3.14537 6.89564L4.12294 7.81145C4.25704 7.93721 4.42 8 4.61168 8C4.80329 8 4.96624 7.93705 5.10042 7.81145L6.07796 6.89564L11.2817 2.02023C11.4158 1.89451 11.483 1.74186 11.483 1.56225C11.4831 1.38273 11.4158 1.23006 11.2817 1.10434Z" fill="white"/>
</svg>
