<svg width="24" height="24" viewBox="0 0 24 24" fill="none" xmlns="http://www.w3.org/2000/svg">
<path d="M22.1772 8.06777C22.252 7.66691 22.2899 7.26002 22.2904 6.85222C22.2858 3.06482 19.2118 -0.00175797 15.4244 0.00281272C12.5413 0.00627841 9.96824 1.81271 8.98559 4.52323C7.22618 3.82286 5.2321 4.68134 4.53168 6.44076C4.47105 6.59305 4.42143 6.74945 4.3832 6.90883C1.57389 7.32898 -0.362881 9.94698 0.0572712 12.7563C0.434077 15.2759 2.59858 17.1399 5.14611 17.1388H9.43216C9.90561 17.1388 10.2894 16.7551 10.2894 16.2816C10.2894 15.8082 9.90561 15.4244 9.43216 15.4244H5.14611C3.25239 15.4244 1.71724 13.8892 1.71724 11.9955C1.71724 10.1018 3.25239 8.56663 5.14611 8.56663C5.61955 8.56663 6.00334 8.18284 6.00334 7.7094C6.0049 6.76257 6.77373 5.99625 7.72056 5.9978C8.16834 5.99856 8.59809 6.17445 8.91783 6.48787C9.25501 6.82018 9.79777 6.81621 10.1301 6.47903C10.2548 6.35241 10.3372 6.19017 10.3656 6.01468C10.8309 3.21536 13.4774 1.32329 16.2767 1.7886C19.0761 2.2539 20.9681 4.90038 20.5028 7.69971C20.4751 7.86661 20.4391 8.03206 20.395 8.1954C20.2965 8.55322 20.4394 8.93379 20.7491 9.13832C22.327 10.1853 22.7574 12.3133 21.7104 13.8912C21.0767 14.8463 20.0077 15.4216 18.8615 15.4243H16.2899C15.8164 15.4243 15.4326 15.8081 15.4326 16.2815C15.4326 16.7549 15.8164 17.1387 16.2899 17.1387H18.8615C21.7021 17.1361 24.0026 14.8311 23.9999 11.9906C23.9985 10.4787 23.3319 9.04394 22.1772 8.06777Z" fill="#1A1821"/>
<path d="M17.7341 18.2472C17.4019 17.9264 16.8752 17.9264 16.5431 18.2472L13.7185 21.07V8.56667C13.7185 8.09323 13.3347 7.70944 12.8613 7.70944C12.3879 7.70944 12.0041 8.09323 12.0041 8.56667V21.07L9.18124 18.2471C8.8407 17.9183 8.29804 17.9277 7.96915 18.2682C7.6483 18.6004 7.6483 19.127 7.96915 19.4592L12.2552 23.7453C12.5895 24.0805 13.1323 24.0812 13.4675 23.7468C13.468 23.7463 13.4685 23.7458 13.4691 23.7453L17.7551 19.4592C18.084 19.1187 18.0746 18.5761 17.7341 18.2472Z" fill="#1A1821"/>
</svg>
