<svg width="130" height="130" viewBox="0 0 130 130" fill="none" xmlns="http://www.w3.org/2000/svg">
<g clip-path="url(#clip0)">
<path d="M126.187 127.078C122.466 124.226 118.44 121.796 114.183 119.831L98.9659 112.805C98.2131 114.95 96.2454 119.75 92.3564 124.578C90.713 126.618 88.9198 128.426 86.9937 130H130L126.187 127.078Z" fill="#BBA182"/>
<path d="M37.6436 124.578C33.7547 119.75 31.7869 114.95 31.0341 112.805L15.8166 119.831C11.5597 121.796 7.53387 124.226 3.81256 127.078L0 130H43.0064C41.0812 128.426 39.287 126.619 37.6436 124.578Z" fill="#BBA182"/>
<path d="M89.7935 106.132V105.265C83.0818 110.907 74.4312 114.311 64.9999 114.311C55.5687 114.311 46.918 110.907 40.2074 105.265V106.132C40.2074 107.614 39.3385 108.971 37.9946 109.591C37.9946 109.591 43.8722 130 65.0009 130C86.1287 130 92.0062 109.591 92.0062 109.591C90.6613 108.971 89.7935 107.614 89.7935 106.132Z" fill="#BBA182"/>
<path d="M65 106.69C82.0811 106.69 95.9766 92.7889 95.9766 75.7008V61.9819H34.0234V75.7008C34.0234 92.7889 47.9198 106.69 65 106.69Z" fill="#BBA182"/>
<path d="M25.9898 54.3607H104.01C106.114 54.3607 107.819 52.6547 107.819 50.5511C107.819 48.4464 106.114 46.7405 104.01 46.7405H100.811V42.801C100.811 30.5202 94.602 19.6658 85.1608 13.208V29.2844C85.1608 31.3891 83.4559 33.095 81.3522 33.095C79.2496 33.095 77.5436 31.3891 77.5436 29.2844V10.785C77.5436 10.2782 77.6448 9.79416 77.8253 9.35181C74.9758 8.25485 71.9527 7.51198 68.8087 7.17773V33.9579C68.8087 36.0625 67.1027 37.7685 65.0001 37.7685C62.8964 37.7685 61.1915 36.0625 61.1915 33.9579V7.17773C58.0474 7.51099 55.0253 8.25485 52.1768 9.35081C52.3563 9.79416 52.4575 10.2772 52.4575 10.785V29.2844C52.4575 31.3891 50.7526 33.095 48.6489 33.095C46.5453 33.095 44.8403 31.3891 44.8403 29.2844V13.206C35.3982 19.6638 29.1884 30.5202 29.1884 42.801V46.7405H25.9888C23.8861 46.7405 22.1802 48.4464 22.1802 50.5511C22.1802 52.6547 23.8861 54.3607 25.9898 54.3607Z" fill="#BBA182"/>
<path d="M85.1607 10.7852C85.1607 8.68054 83.4558 6.97461 81.3521 6.97461C79.7563 6.97461 78.3905 7.9585 77.8252 9.353C80.4297 10.3557 82.8894 11.654 85.1607 13.2082V10.7852Z" fill="#BBA182"/>
<path d="M48.6499 6.97461C46.5462 6.97461 44.8413 8.68054 44.8413 10.7852V13.2062C47.1126 11.652 49.5723 10.3537 52.1768 9.35101C51.6105 7.9585 50.2457 6.97461 48.6499 6.97461Z" fill="#BBA182"/>
<path d="M68.8086 7.17781V3.81058C68.8086 1.70593 67.1037 0 65 0C62.8963 0 61.1914 1.70593 61.1914 3.81058V7.17781C62.4431 7.04391 63.7136 6.97449 65 6.97449C66.2864 6.97449 67.5569 7.04391 68.8086 7.17781Z" fill="#BBA182"/>
</g>
<defs>
<clipPath id="clip0">
<rect width="130" height="130" fill="white"/>
</clipPath>
</defs>
</svg>
