<svg width="130" height="130" viewBox="0 0 130 130" fill="none" xmlns="http://www.w3.org/2000/svg">
<path d="M34.5312 99.5312C42.945 99.5312 49.7656 92.7106 49.7656 84.2969C49.7656 75.8832 42.945 69.0625 34.5312 69.0625C26.1175 69.0625 19.2969 75.8832 19.2969 84.2969C19.2969 92.7106 26.1175 99.5312 34.5312 99.5312Z" fill="#BBA182"/>
<path d="M7.87109 126.191C7.87109 128.297 9.57455 130 11.6797 130H57.3828C59.4879 130 61.1914 128.297 61.1914 126.191C61.1914 111.493 49.2301 99.5312 34.5312 99.5312C19.8324 99.5312 7.87109 111.493 7.87109 126.191Z" fill="#BBA182"/>
<path d="M95.4688 99.5312C103.882 99.5312 110.703 92.7106 110.703 84.2969C110.703 75.8832 103.882 69.0625 95.4688 69.0625C87.055 69.0625 80.2344 75.8832 80.2344 84.2969C80.2344 92.7106 87.055 99.5312 95.4688 99.5312Z" fill="#BBA182"/>
<path d="M68.8086 126.191C68.8086 128.297 70.5121 130 72.6172 130H118.32C120.425 130 122.129 128.297 122.129 126.191C122.129 111.493 110.168 99.5312 95.4688 99.5312C80.7699 99.5312 68.8086 111.493 68.8086 126.191Z" fill="#BBA182"/>
<path d="M118.574 0H11.4258C5.12535 0 0 5.12535 0 11.4258V41.8945C0 48.195 5.12535 53.3203 11.4258 53.3203H25.0831L31.5844 59.8216C33.0721 61.3092 35.4824 61.3092 36.97 59.8216L43.4715 53.3203H86.5285L93.0297 59.8216C94.5174 61.3092 96.9274 61.3095 98.4153 59.8216L104.917 53.3203H118.574C124.875 53.3203 130 48.195 130 41.8945V11.4258C130 5.12535 124.875 0 118.574 0ZM49.5117 38.0859H19.043C16.9378 38.0859 15.2344 36.3825 15.2344 34.2773C15.2344 32.1722 16.9378 30.4688 19.043 30.4688H49.5117C51.6169 30.4688 53.3203 32.1722 53.3203 34.2773C53.3203 36.3825 51.6169 38.0859 49.5117 38.0859ZM49.5117 22.8516H19.043C16.9378 22.8516 15.2344 21.1481 15.2344 19.043C15.2344 16.9378 16.9378 15.2344 19.043 15.2344H49.5117C51.6169 15.2344 53.3203 16.9378 53.3203 19.043C53.3203 21.1481 51.6169 22.8516 49.5117 22.8516ZM110.957 38.0859H80.4883C78.3831 38.0859 76.6797 36.3825 76.6797 34.2773C76.6797 32.1722 78.3831 30.4688 80.4883 30.4688H110.957C113.062 30.4688 114.766 32.1722 114.766 34.2773C114.766 36.3825 113.062 38.0859 110.957 38.0859ZM110.957 22.8516H80.4883C78.3831 22.8516 76.6797 21.1481 76.6797 19.043C76.6797 16.9378 78.3831 15.2344 80.4883 15.2344H110.957C113.062 15.2344 114.766 16.9378 114.766 19.043C114.766 21.1481 113.062 22.8516 110.957 22.8516Z" fill="#BBA182"/>
</svg>
