<svg width="130" height="130" viewBox="0 0 130 130" fill="none" xmlns="http://www.w3.org/2000/svg">
<path d="M98.8998 22.197C98.8998 19.1471 97.7095 16.2759 95.5523 14.1187L84.7811 3.3475C82.6539 1.22002 79.6342 0 76.6289 0H75.9744V22.8516H98.9001L98.8998 22.197Z" fill="#BBA182"/>
<path d="M69.5543 78.5934C70.2833 76.3803 71.5554 74.3199 73.2141 72.6499L99.0013 46.9666V30.4688H72.2396C70.1345 30.4688 68.5547 28.7653 68.5547 26.6602V0H11.4258C5.12535 0 0 5.12535 0 11.4258V118.574C0 124.875 5.12535 130 11.4258 130H87.474C93.7744 130 99.0013 124.875 99.0013 118.574V90.1492L94.816 94.233C93.1201 95.9141 91.1341 97.1377 88.8949 97.8854L76.7848 101.928L74.9399 102.029C71.89 102.029 69.0039 100.545 67.2113 98.0604C65.4334 95.5871 64.95 92.381 65.9169 89.4837L69.5543 78.5934ZM19.043 68.5547H57.0053C59.1104 68.5547 60.8138 70.2581 60.8138 72.3633C60.8138 74.4684 59.1104 76.1719 57.0053 76.1719H19.043C16.9378 76.1719 15.2344 74.4684 15.2344 72.3633C15.2344 70.2581 16.9378 68.5547 19.043 68.5547ZM15.2344 57.1289C15.2344 55.0238 16.9378 53.3203 19.043 53.3203H57.0053C59.1104 53.3203 60.8138 55.0238 60.8138 57.1289C60.8138 59.234 59.1104 60.9375 57.0053 60.9375H19.043C16.9378 60.9375 15.2344 59.234 15.2344 57.1289ZM15.2344 87.5977C15.2344 85.4925 16.9378 83.7891 19.043 83.7891H57.0053C59.1104 83.7891 60.8138 85.4925 60.8138 87.5977C60.8138 89.7028 59.1104 91.4062 57.0053 91.4062H19.043C16.9378 91.4062 15.2344 89.7028 15.2344 87.5977ZM72.2396 106.641C74.3448 106.641 76.0482 108.344 76.0482 110.449C76.0482 112.554 74.345 114.258 72.2396 114.258H49.3881C47.2829 114.258 45.5795 112.554 45.5795 110.449C45.5795 108.344 47.2829 106.641 49.3881 106.641H72.2396ZM19.043 45.7031C16.9378 45.7031 15.2344 43.9997 15.2344 41.8945C15.2344 39.7894 16.9378 38.0859 19.043 38.0859H72.2396C74.3448 38.0859 76.0482 39.7894 76.0482 41.8945C76.0482 43.9997 74.3448 45.7031 72.2396 45.7031H19.043Z" fill="#BBA182"/>
<path d="M76.454 81.9629L73.1406 91.9036C72.6439 93.3927 74.061 94.8093 75.5501 94.3119L85.485 90.9938L76.454 81.9629Z" fill="#BBA182"/>
<path d="M106.033 50.6052L80.9503 75.6884L91.768 86.506C97.4372 80.8358 108.468 69.8033 116.85 61.4216L106.033 50.6052Z" fill="#BBA182"/>
<path d="M127.762 39.6815C126.423 38.335 124.452 37.5652 122.361 37.5652C120.271 37.5652 118.3 38.335 116.953 39.6853L111.419 45.2197L122.235 56.0356C125.265 53.0055 127.359 50.9113 127.77 50.5007C130.745 47.5211 130.744 42.6679 127.762 39.6815Z" fill="#BBA182"/>
<path d="M127.769 50.5009C127.77 50.5009 127.77 50.5006 127.77 50.5004C127.78 50.4907 127.784 50.4864 127.792 50.4785C127.784 50.4866 127.78 50.491 127.769 50.5009Z" fill="#BBA182"/>
<path d="M127.792 50.4783C127.804 50.4662 127.818 50.4519 127.826 50.4446C127.818 50.4522 127.804 50.4662 127.792 50.4783Z" fill="#BBA182"/>
<path d="M127.825 50.4447C127.85 50.4201 127.851 50.4196 127.825 50.4447V50.4447Z" fill="#BBA182"/>
</svg>
