<svg width="130" height="130" viewBox="0 0 130 130" fill="none" xmlns="http://www.w3.org/2000/svg">
<g clip-path="url(#clip0)">
<path d="M31.4166 33.047C27.0832 28.7136 8.66658 27.6305 2.70816 27.0886C2.16658 27.0886 1.62475 27.0886 1.08316 27.6302C0.541582 28.172 0 29.2555 0 29.797V78.547C0 80.172 1.08342 81.2554 2.70842 81.2554H18.9584C20.0418 81.2554 21.125 80.7138 21.6668 79.6304C21.6668 78.0054 31.4168 49.297 32.5003 35.2139C32.5 34.672 32.5 33.5889 31.4166 33.047Z" fill="#BBA182"/>
<path d="M89.3753 46.0342C83.9587 44.4092 79.0837 42.2426 74.7503 40.6176C65.0003 36.2842 60.6669 38.451 52.0003 47.1176C48.2087 50.9092 45.5003 56.326 46.0419 58.4926C46.0419 59.0342 46.0419 59.0342 47.1253 59.576C49.8337 60.6595 53.6253 61.201 57.4169 55.2426C57.9585 54.701 58.5003 54.1592 59.5835 54.1592C61.2085 54.1592 61.7501 53.6176 63.3751 53.0758C64.4585 52.5342 65.5416 51.9924 67.1666 51.4508C67.7082 51.4508 67.7082 51.4508 68.2501 51.4508C68.7916 51.4508 69.8751 51.9924 70.4166 51.9924C73.1253 54.701 78.0003 58.4926 82.8753 62.826C90.4587 68.7845 98.0419 75.2845 101.834 80.1595H102.375C98.5837 69.326 92.0837 50.9092 89.3753 46.0342Z" fill="#BBA182"/>
<path d="M127.293 32.5C106.168 32.5 94.2515 37.9166 93.7097 37.9166C93.1681 38.4582 92.6262 39 92.0847 39.5416C92.0847 40.0832 92.0847 41.1666 92.6262 41.7082C95.8762 47.1247 106.71 76.9166 108.335 84.4997C108.876 85.5832 109.96 86.6663 111.043 86.6663H127.293C128.918 86.6663 130.001 85.5829 130.001 83.9579V35.2079C130.001 33.5834 128.918 32.5 127.293 32.5Z" fill="#BBA182"/>
<path d="M98.0425 85.5727C95.8759 80.6977 86.6675 73.6562 78.5425 67.1562C74.2093 63.3643 69.8759 60.1143 66.6259 57.4059C66.0843 57.9475 65.0009 57.9475 65.0009 58.4893C63.3759 59.0309 62.8343 59.5727 60.6675 59.5727C56.3343 64.9893 50.9175 67.1559 44.9593 64.9893C42.2509 64.4477 40.6259 62.2809 40.0843 60.1143C39.0009 54.6977 43.8759 47.1143 47.6677 43.3228H36.8343C34.6677 54.1562 30.8759 68.2393 28.1677 75.8227C30.3343 77.9893 32.5011 80.6977 34.1261 81.7811C44.4177 90.4477 56.3346 99.1146 58.5012 100.74C60.1262 101.823 63.3762 102.906 65.0012 102.906C65.5427 102.906 66.0846 102.906 66.6262 102.906L57.9593 94.2393C56.8759 93.1559 56.8759 91.5309 57.9593 90.4477C59.0427 89.3646 60.6677 89.3643 61.7509 90.4477L72.5843 101.281C73.6677 102.365 74.7509 101.823 75.8343 101.823C77.4593 101.281 78.0009 100.198 78.5427 98.5727L66.0843 86.1143C65.0009 85.0309 65.0009 83.4059 66.0843 82.3227C67.1677 81.2396 68.7927 81.2393 69.8759 82.3227L83.4175 95.8643C83.9591 96.4059 86.1259 96.4059 87.7509 95.8643C88.2925 95.3227 89.3759 94.7809 89.9175 93.6977L74.7509 78.5309C73.6675 77.4475 73.6675 75.8225 74.7509 74.7393C75.8343 73.6562 77.4593 73.6559 78.5425 74.7393L94.2509 90.4477C95.3343 90.9893 96.4175 90.4477 97.5009 89.9061C98.0425 89.3643 99.1259 87.7393 98.0425 85.5727Z" fill="#BBA182"/>
</g>
<defs>
<clipPath id="clip0">
<rect width="130" height="130" fill="white"/>
</clipPath>
</defs>
</svg>
