<svg width="33" height="33" viewBox="0 0 33 33" fill="none" xmlns="http://www.w3.org/2000/svg">
<path d="M23.1685 0H9.83027C4.4095 0 -0.000610352 4.41011 -0.000610352 9.83088V23.1691C-0.000610352 28.5899 4.4095 33 9.83027 33H23.1685C28.5893 33 32.9994 28.5899 32.9994 23.1691V9.83088C32.9993 4.41011 28.5892 0 23.1685 0ZM29.6796 23.1691C29.6796 26.7651 26.7645 29.6802 23.1685 29.6802H9.83027C6.23433 29.6802 3.31919 26.7651 3.31919 23.1691V9.83088C3.31919 6.23488 6.23433 3.3198 9.83027 3.3198H23.1685C26.7645 3.3198 29.6796 6.23488 29.6796 9.83088V23.1691Z" />
<path d="M16.4993 7.96509C11.7931 7.96509 7.96436 11.7939 7.96436 16.5C7.96436 21.2061 11.7931 25.035 16.4993 25.035C21.2055 25.035 25.0343 21.2062 25.0343 16.5C25.0343 11.7938 21.2055 7.96509 16.4993 7.96509ZM16.4993 21.7152C13.619 21.7152 11.2842 19.3803 11.2842 16.5001C11.2842 13.6198 13.6191 11.2849 16.4993 11.2849C19.3796 11.2849 21.7145 13.6198 21.7145 16.5001C21.7145 19.3803 19.3796 21.7152 16.4993 21.7152Z" />
<path d="M25.0508 10.0742C26.1803 10.0742 27.096 9.15855 27.096 8.02904C27.096 6.89953 26.1803 5.98389 25.0508 5.98389C23.9213 5.98389 23.0057 6.89953 23.0057 8.02904C23.0057 9.15855 23.9213 10.0742 25.0508 10.0742Z" />
</svg>
