<svg width="53" height="73" viewBox="0 0 53 73" fill="none" xmlns="http://www.w3.org/2000/svg">
<path d="M28.6133 64.0902C28.0833 63.7002 27.6032 63.4102 27.0932 63.2302C26.5832 63.0502 26.0533 62.9502 25.4933 62.9302C24.3833 62.8802 23.1732 63.0902 22.0132 63.3702C20.8532 63.6602 19.7532 64.0002 18.9232 64.2802C18.1032 64.5502 17.5732 64.7702 17.5732 64.7702C17.5732 64.7702 18.0932 65.0702 18.9432 65.4302C19.7832 65.7902 20.9532 66.2002 22.2232 66.4202C23.4832 66.6402 24.8632 66.6702 26.0732 66.3202C27.2532 65.9902 28.2733 65.2502 28.6133 64.0902Z" fill="#BBA182"/>
<path d="M25.0633 58.9501C25.5133 59.9601 26.1733 60.9501 27.0333 61.6001C27.4633 61.9201 27.9433 62.1601 28.4533 62.2601C28.9633 62.3601 29.5133 62.3301 30.0533 62.1101C30.0833 60.9001 29.7533 59.9401 29.2333 59.1001C28.7133 58.2701 27.9733 57.5501 27.2133 56.9201C26.4533 56.3001 25.6733 55.7801 25.0833 55.4101C24.4933 55.0401 24.0933 54.8301 24.0933 54.8301C24.0933 54.8301 24.1033 54.9601 24.1233 55.1901C24.1433 55.4101 24.1833 55.7401 24.2433 56.1301C24.3633 56.9001 24.6133 57.9401 25.0633 58.9501Z" fill="#BBA182"/>
<path d="M16.7333 61.6598C17.8933 61.5998 18.9233 61.1598 19.6433 60.1898C19.0633 59.1598 18.1933 58.5998 17.1433 58.2798C16.0933 57.9598 14.8733 57.8698 13.6733 57.8298C12.4733 57.7998 11.2833 57.8198 10.3933 57.8298C9.48334 57.8398 8.90332 57.8598 8.90332 57.8598C8.90332 57.8598 9.01333 57.9798 9.22333 58.1798C9.43333 58.3698 9.73334 58.6498 10.1133 58.9598C10.8633 59.5798 11.9333 60.3098 13.1133 60.8398C14.2833 61.3698 15.5633 61.7098 16.7333 61.6598Z" fill="#BBA182"/>
<path d="M18.9333 57.0702C19.5933 57.9002 20.5133 58.4502 21.6533 58.4002C22.1233 57.2802 22.0433 56.2202 21.7233 55.2402C21.4033 54.2702 20.8533 53.3702 20.2833 52.5902C19.7133 51.8102 19.1433 51.1502 18.7133 50.6702C18.5033 50.4302 18.3233 50.2402 18.2033 50.1102C18.0833 49.9802 18.0133 49.9102 18.0133 49.9102C18.0133 49.9102 17.9733 50.0302 17.9133 50.2402C17.8533 50.4602 17.7933 50.7602 17.7333 51.1402C17.6133 51.9002 17.5533 52.9402 17.7133 54.0302C17.8833 55.1202 18.2833 56.2302 18.9333 57.0702Z" fill="#BBA182"/>
<path d="M4.72327 48.7498C3.90327 48.4898 3.36328 48.3398 3.36328 48.3398C3.36328 48.3398 3.41328 48.4798 3.51328 48.7098C3.62328 48.9398 3.79327 49.2598 4.00327 49.6298C4.21327 50.0098 4.47328 50.4498 4.77328 50.9098C4.92328 51.1398 5.08327 51.3798 5.25327 51.6098L5.38327 51.7898L5.55328 52.0098C5.66328 52.1598 5.78326 52.2998 5.90326 52.4498C6.86326 53.5998 8.05327 54.4698 9.22327 54.8398C10.3933 55.2098 11.5233 55.0898 12.4933 54.3698C12.2233 53.2098 11.5733 52.4198 10.6933 51.7298C10.4833 51.5598 10.2333 51.3998 9.99329 51.2298C9.75329 51.0698 9.49328 50.9098 9.23328 50.7498C8.97328 50.5898 8.70326 50.4298 8.43326 50.2798C8.17326 50.1398 7.91326 50.0098 7.65326 49.8898C6.62326 49.3898 5.54327 49.0098 4.72327 48.7498Z" fill="#BBA182"/>
<path d="M12.7832 50.8102C13.0932 51.8102 13.8133 52.6302 14.9133 52.8902C15.6733 51.9502 15.9233 50.9302 15.9833 49.9602C16.0333 48.9902 15.9133 48.0802 15.8033 47.3102C15.7633 46.9802 15.6333 46.4302 15.5133 46.0002C15.3933 45.5602 15.2533 45.1602 15.1333 44.8202C15.0133 44.4802 14.8932 44.2102 14.8132 44.0202C14.7432 43.8302 14.6933 43.7202 14.6933 43.7202C14.6933 43.7202 14.6133 43.8302 14.4933 44.0202C14.3633 44.2202 14.2033 44.5002 14.0233 44.8502C13.6633 45.5402 13.2233 46.5202 12.9233 47.6002C12.8433 47.8702 12.7733 48.1402 12.7233 48.4302C12.6733 48.6902 12.6333 48.9502 12.6133 49.2302C12.5933 49.5002 12.6133 49.7702 12.6333 50.0402C12.6533 50.3002 12.7132 50.5602 12.7832 50.8102Z" fill="#BBA182"/>
<path d="M3.46329 44.68C3.65329 44.91 3.8733 45.12 4.1033 45.31C4.3233 45.5 4.56331 45.68 4.80331 45.83C5.76331 46.45 6.82331 46.7 7.98331 46.37C8.08331 45.79 8.0333 45.26 7.8833 44.77C7.8033 44.53 7.7033 44.29 7.5733 44.07C7.4433 43.84 7.29331 43.63 7.14331 43.41C6.52331 42.55 5.56329 41.8 4.59329 41.13C3.65329 40.46 2.66329 39.88 1.90329 39.46C1.13329 39.05 0.643311 38.79 0.643311 38.79C0.643311 38.79 0.663297 38.93 0.723297 39.18C0.793297 39.43 0.893304 39.78 1.0433 40.2C1.3333 41.04 1.73331 42.17 2.39331 43.2C2.71331 43.72 3.07329 44.23 3.46329 44.68Z" fill="#BBA182"/>
<path d="M9.72329 44.2299C9.95329 44.6799 10.2833 45.0899 10.7433 45.4099C11.7933 44.8099 12.3933 43.9099 12.7133 42.9299C12.7933 42.6899 12.8533 42.4399 12.9033 42.1799C12.9233 42.0499 12.9433 41.9299 12.9633 41.7999C12.9833 41.6699 13.0033 41.5399 13.0233 41.4099C13.0933 40.8899 13.1033 40.3799 13.0933 39.8799C13.0333 38.8899 12.9633 37.9599 12.8433 37.2799C12.7833 36.9399 12.7233 36.6599 12.6833 36.4699C12.6533 36.2799 12.6333 36.1699 12.6333 36.1699C12.6333 36.1699 12.5333 36.2599 12.3733 36.4199C12.2033 36.5799 11.9933 36.8199 11.7533 37.1199C11.2633 37.7199 10.6533 38.5799 10.1533 39.5799C9.68328 40.5699 9.37329 41.6899 9.38329 42.7499C9.38329 43.0199 9.4233 43.2699 9.4833 43.5199C9.5233 43.7699 9.61329 43.9999 9.72329 44.2299Z" fill="#BBA182"/>
<path d="M1.45321 35.1502C1.60321 35.4202 1.75319 35.6802 1.93319 35.9102C2.11319 36.1502 2.31322 36.3702 2.52322 36.5602C3.35322 37.3602 4.34321 37.8202 5.54321 37.7102C5.75321 37.1602 5.8132 36.6402 5.7532 36.1302C5.7232 35.8802 5.66321 35.6302 5.58321 35.3802C5.50321 35.1302 5.42319 34.8902 5.31319 34.6502C5.09319 34.1602 4.78319 33.6902 4.43319 33.2302C4.25319 33.0002 4.06321 32.7702 3.89321 32.5502C3.71321 32.3202 3.5132 32.1002 3.3232 31.8902C2.5432 31.0202 1.67319 30.2302 1.06319 29.6402C0.443195 29.0502 0.00319699 28.6802 0.00319699 28.6802C0.00319699 28.6802 -0.0167945 29.2802 0.0432055 30.1802C0.0732055 30.6302 0.163217 31.1502 0.273217 31.7102C0.323217 31.9902 0.393188 32.2802 0.463188 32.5702C0.533188 32.8602 0.603198 33.1602 0.723198 33.4502C0.903198 34.0302 1.15321 34.6102 1.45321 35.1502Z" fill="#BBA182"/>
<path d="M8.4031 37.0699C9.5531 36.6799 10.3131 35.9199 10.8131 35.0399C10.9431 34.8199 11.0431 34.5999 11.1431 34.3599C11.2531 34.1299 11.3531 33.8899 11.4331 33.6499C11.6031 33.1699 11.7231 32.6899 11.8031 32.2199C11.8931 31.7499 11.9931 31.2899 12.0331 30.8699C12.0631 30.6599 12.0831 30.4499 12.0931 30.2599C12.1031 30.0699 12.1131 29.8899 12.1331 29.7199C12.2031 29.0599 12.1931 28.6299 12.1931 28.6299C12.1931 28.6299 11.7531 28.8699 11.1131 29.3299C10.9531 29.4399 10.7831 29.5699 10.6031 29.7099C10.4231 29.8499 10.2431 30.0099 10.0631 30.1699C9.7131 30.4999 9.34311 30.8899 9.00311 31.3099C8.83311 31.5199 8.66311 31.7399 8.50311 31.9799C8.42311 32.0899 8.34313 32.2099 8.27313 32.3299C8.20313 32.4499 8.14312 32.5699 8.08312 32.6899C7.84312 33.1799 7.6631 33.6899 7.5631 34.2099C7.5131 34.4699 7.48313 34.7199 7.49313 34.9799C7.50313 35.2299 7.54312 35.4799 7.61312 35.7199C7.76312 36.2199 8.0131 36.6699 8.4031 37.0699Z" fill="#BBA182"/>
<path d="M4.24323 22.5899C3.97323 22.0699 3.6832 21.5699 3.4032 21.1099C3.1132 20.6399 2.85321 20.2099 2.63321 19.8499C2.18321 19.1299 1.85321 18.6499 1.85321 18.6499C1.85321 18.6499 1.6832 19.2199 1.5032 20.0999C1.4332 20.5499 1.37322 21.0699 1.33322 21.6399C1.31322 21.9299 1.2932 22.2199 1.2832 22.5199C1.2832 22.8199 1.30322 23.1299 1.33322 23.4399C1.38322 24.0599 1.4632 24.6899 1.6232 25.2799C1.8032 25.8699 2.03321 26.4399 2.32321 26.9199C2.89321 27.8999 3.8132 28.5799 5.0032 28.7499C5.1632 28.5099 5.27322 28.2599 5.36322 28.0199C5.44322 27.7699 5.5332 27.5299 5.5632 27.2799C5.6432 26.7799 5.60322 26.2599 5.48322 25.7399C5.38322 25.2199 5.22323 24.6899 4.99323 24.1599C4.77323 23.6499 4.49323 23.1099 4.24323 22.5899Z" fill="#BBA182"/>
<path d="M10.7131 27.1702C11.0731 26.8202 11.3731 26.4202 11.6331 26.0102C11.9131 25.6002 12.1631 25.1802 12.3631 24.7502C12.4631 24.5402 12.5431 24.3302 12.6431 24.1202C12.7431 23.9202 12.8331 23.7202 12.9131 23.5202C13.0731 23.1302 13.1931 22.7702 13.2931 22.4702C13.5331 21.8602 13.6331 21.4502 13.6331 21.4502C13.6331 21.4502 13.1431 21.5702 12.4131 21.8402C11.6631 22.1102 10.7631 22.5602 9.87311 23.2002C9.65311 23.3602 9.42311 23.5302 9.22311 23.7102C9.02311 23.8902 8.83311 24.0902 8.65311 24.2902C8.29311 24.7002 7.97311 25.1402 7.75311 25.6102C7.55311 26.0802 7.44312 26.5802 7.44312 27.0702C7.44312 27.3202 7.46312 27.5602 7.54312 27.8102C7.62312 28.0602 7.73312 28.3002 7.88312 28.5402C9.10312 28.4202 9.9731 27.8702 10.7131 27.1702Z" fill="#BBA182"/>
<path d="M7.20331 19.4298C7.36331 19.2198 7.49329 18.9998 7.59329 18.7698C7.69329 18.5398 7.76329 18.2998 7.81329 18.0498C7.86329 17.7998 7.8833 17.5398 7.9133 17.2798C7.9533 16.7598 7.9133 16.1998 7.8233 15.6298C7.7333 15.0598 7.63331 14.4998 7.49331 13.9198C7.20331 12.7798 6.8833 11.7098 6.6033 10.8898C6.3233 10.0698 6.12329 9.5498 6.12329 9.5498C6.12329 9.5498 6.04331 9.66981 5.92331 9.89981C5.80331 10.1298 5.64328 10.4598 5.46328 10.8598C5.08328 11.6598 4.70331 12.7998 4.45331 13.9998C4.35331 14.6098 4.2933 15.2398 4.2933 15.8398C4.2833 16.1398 4.32331 16.4498 4.36331 16.7398C4.40331 17.0298 4.46331 17.3198 4.55331 17.5898C4.72331 18.1398 4.94329 18.6198 5.31329 19.0398C5.67329 19.4598 6.12331 19.7898 6.67331 20.0298C6.88331 19.8498 7.05331 19.6398 7.20331 19.4298Z" fill="#BBA182"/>
<path d="M16.6833 15.0898C16.7833 14.9298 16.8433 14.8398 16.8433 14.8398C16.8433 14.8398 16.7133 14.8398 16.4833 14.8498C16.2533 14.8598 15.9433 14.8798 15.5633 14.9298C15.1833 14.9798 14.7333 15.0498 14.2533 15.1598C14.0133 15.2198 13.7633 15.2798 13.5133 15.3498C13.2733 15.4298 13.0233 15.5098 12.7733 15.6198C12.2733 15.8198 11.7633 16.0598 11.3133 16.3598C10.8733 16.6598 10.4633 17.0098 10.1333 17.4098C9.9633 17.5998 9.8333 17.8198 9.7233 18.0398C9.6133 18.2598 9.52329 18.4898 9.46329 18.7298C9.40329 18.9698 9.37329 19.2198 9.37329 19.4698C9.38329 19.7298 9.43332 19.9898 9.52332 20.2598C10.1133 20.3598 10.6633 20.3298 11.1733 20.2198C11.6733 20.1098 12.1633 19.9198 12.5933 19.6698C12.8133 19.5498 13.0133 19.4098 13.2133 19.2598C13.3133 19.1898 13.4033 19.1098 13.5033 19.0298C13.6033 18.9498 13.6933 18.8698 13.7933 18.7898C14.1733 18.4698 14.5033 18.1098 14.8033 17.7498C15.1233 17.3998 15.4133 17.0398 15.6533 16.6998C15.7133 16.6198 15.7733 16.5298 15.8333 16.4498C15.8933 16.3698 15.9533 16.2898 16.0133 16.2098C16.1233 16.0498 16.2233 15.9098 16.3133 15.7698C16.4533 15.4898 16.5833 15.2598 16.6833 15.0898Z" fill="#BBA182"/>
<path d="M10.4532 12.0701C10.9632 11.8101 11.3533 11.4701 11.6433 11.0601C11.9533 10.6701 12.1632 10.2101 12.3132 9.70009C12.6232 8.70009 12.6732 7.51009 12.6632 6.36009C12.6532 6.07009 12.6432 5.78009 12.6232 5.50009C12.6132 5.22009 12.5932 4.95008 12.5732 4.68008C12.5332 4.15008 12.4832 3.65009 12.4332 3.23009C12.3432 2.39009 12.2532 1.83008 12.2532 1.83008C12.2532 1.83008 12.1533 1.94008 11.9933 2.13008C11.8233 2.32008 11.5933 2.59009 11.3333 2.95009C11.0733 3.30009 10.7733 3.71008 10.4933 4.19008C10.2133 4.67008 9.92324 5.18008 9.69324 5.74008C9.46324 6.30008 9.25323 6.88008 9.12323 7.47008C9.00323 8.06008 8.93323 8.65008 8.96323 9.21008C9.05323 10.3301 9.49325 11.3501 10.4532 12.0701Z" fill="#BBA182"/>
<path d="M18.8531 11.4599C19.2431 11.1799 19.6032 10.8899 19.9232 10.6099C20.2432 10.3299 20.5432 10.0699 20.7732 9.82991C21.0032 9.58991 21.2131 9.39992 21.3431 9.25992C21.4731 9.11992 21.5431 9.03992 21.5431 9.03992C21.5431 9.03992 21.0432 8.92991 20.2632 8.84991C19.8732 8.80991 19.4231 8.78991 18.9331 8.79991C18.4431 8.79991 17.9031 8.83992 17.3731 8.91992C16.2931 9.07992 15.2132 9.43992 14.3932 10.0599C13.9932 10.3699 13.6531 10.7499 13.4131 11.1799C13.1931 11.6199 13.0831 12.1199 13.1031 12.6699C14.2131 13.1599 15.2631 13.1099 16.2231 12.8399C16.7131 12.6999 17.1731 12.4999 17.6031 12.2599C18.0531 12.0199 18.4831 11.7499 18.8531 11.4599Z" fill="#BBA182"/>
<path d="M27.5132 62.84C23.7332 61.31 19.8732 59.52 16.7132 56.9C13.2832 54.05 10.8932 50.33 9.2132 46.26C7.1332 41.17 5.62322 35.85 5.83322 30.3C6.02322 25.47 7.25322 20.74 9.30322 16.36C10.9532 12.82 13.0932 9.28999 15.6732 6.21999C15.5632 5.74999 15.5432 5.29999 15.6232 4.87999C15.7132 4.36999 15.9232 3.87999 16.2232 3.43999C16.8132 2.53999 17.7632 1.80999 18.7432 1.26999C19.7332 0.729989 20.7532 0.389991 21.5132 0.209991C21.8932 0.119991 22.2132 0.0599988 22.4332 0.0299988C22.5432 0.0199988 22.6232 0.01 22.6832 0H22.7632C22.7632 0 22.7532 0.0199921 22.7332 0.0699921C22.7132 0.129992 22.6732 0.199988 22.6232 0.299988C22.5332 0.489988 22.3832 0.770001 22.2032 1.11C21.8432 1.78 21.3432 2.67 20.7632 3.53C20.4732 3.96 20.1432 4.37999 19.8032 4.76999C19.6332 4.96999 19.4532 5.14999 19.2632 5.31999C19.0832 5.49999 18.8832 5.65999 18.6832 5.79999C18.2732 6.07999 17.8332 6.30999 17.3532 6.42999C16.9932 6.51999 16.6232 6.55999 16.2232 6.53999C15.1132 7.86999 14.1032 9.28999 13.1632 10.71C9.50321 16.26 6.87321 22.66 6.48321 29.34C6.14321 35.07 7.51322 40.53 9.67322 45.81C10.8132 48.59 12.2232 51.31 14.1932 53.61C16.1632 55.91 18.5432 57.73 21.1732 59.21C26.2032 62.05 33.4532 65.19 40.4032 67.51L42.4532 68.15C45.8632 69.22 49.1332 70.06 51.9532 70.53C52.3332 70.59 51.1632 72.58 50.7932 72.52C47.8132 72.02 44.2032 70.59 40.5432 68.93L38.6232 68.04C34.5832 66.13 30.6132 64.09 27.5132 62.84Z" fill="#BBA182"/>
</svg>
