<svg width="181" height="420" viewBox="0 0 181 420" fill="none" xmlns="http://www.w3.org/2000/svg">
<g opacity="0.1">
<path d="M180.198 403.622C176.86 401.166 173.837 399.339 170.625 398.206C167.413 397.072 164.076 396.443 160.549 396.317C153.559 396.002 145.938 397.324 138.633 399.088C131.328 400.914 124.4 403.055 119.173 404.819C114.009 406.519 110.671 407.904 110.671 407.904C110.671 407.904 113.946 409.794 119.299 412.061C124.589 414.328 131.957 416.91 139.955 418.296C147.891 419.681 156.581 419.87 164.202 417.666C171.633 415.588 178.057 410.927 180.198 403.622Z" fill="#BBA182"/>
<path d="M105.382 388.316C112.687 387.938 119.174 385.167 123.708 379.058C120.055 372.571 114.576 369.045 107.964 367.03C101.351 365.014 93.668 364.447 86.1108 364.195C78.5535 364.007 71.0592 364.133 65.4543 364.195C59.7234 364.258 56.0706 364.385 56.0706 364.385C56.0706 364.385 56.7634 365.14 58.0859 366.4C59.4084 367.596 61.2978 369.36 63.6909 371.312C68.4142 375.217 75.1528 379.814 82.5841 383.152C89.9524 386.489 98.0134 388.631 105.382 388.316Z" fill="#BBA182"/>
<path d="M119.236 359.411C123.393 364.639 129.187 368.102 136.366 367.787C139.326 360.734 138.822 354.058 136.807 347.887C134.792 341.778 131.328 336.11 127.738 331.198C124.149 326.286 120.559 322.129 117.851 319.106C116.528 317.595 115.395 316.398 114.639 315.579C113.883 314.761 113.443 314.32 113.443 314.32C113.443 314.32 113.191 315.076 112.813 316.398C112.435 317.784 112.057 319.673 111.679 322.066C110.924 326.852 110.546 333.402 111.553 340.266C112.624 347.131 115.143 354.121 119.236 359.411Z" fill="#BBA182"/>
<path d="M29.7458 307.013C24.5816 305.375 21.181 304.431 21.181 304.431C21.181 304.431 21.4958 305.312 22.1256 306.761C22.8183 308.209 23.8889 310.225 25.2114 312.555C26.5339 314.948 28.1715 317.719 30.0608 320.616C31.0054 322.064 32.0129 323.576 33.0835 325.024L33.9023 326.158L34.973 327.543C35.6657 328.488 36.4213 329.37 37.177 330.314C43.2228 337.557 50.7171 343.036 58.0855 345.366C65.4538 347.696 72.5703 346.94 78.6791 342.406C76.9787 335.101 72.8851 330.125 67.3431 325.78C66.0206 324.709 64.4463 323.702 62.9348 322.631C61.4234 321.623 59.7859 320.616 58.1485 319.608C56.5111 318.601 54.8106 317.593 53.1102 316.648C51.4728 315.767 49.8354 314.948 48.198 314.192C41.7114 311.043 34.9099 308.65 29.7458 307.013Z" fill="#BBA182"/>
<path d="M80.5052 319.988C82.4575 326.286 86.9919 331.45 93.9193 333.087C98.7056 327.168 100.28 320.744 100.658 314.635C100.973 308.526 100.217 302.795 99.5244 297.946C99.2725 295.868 98.4537 292.404 97.698 289.696C96.9423 286.925 96.0606 284.406 95.3049 282.265C94.5491 280.124 93.7934 278.423 93.2895 277.227C92.8487 276.03 92.5338 275.337 92.5338 275.337C92.5338 275.337 92.0301 276.03 91.2744 277.227C90.4557 278.486 89.4481 280.25 88.3145 282.454C86.0473 286.799 83.2763 292.971 81.387 299.773C80.8832 301.473 80.4422 303.173 80.1273 305C79.8125 306.637 79.5606 308.274 79.4347 310.038C79.3087 311.738 79.4346 313.439 79.5606 315.139C79.6865 316.776 80.0644 318.414 80.5052 319.988Z" fill="#BBA182"/>
<path d="M21.8108 281.382C23.0074 282.831 24.3929 284.153 25.8414 285.35C27.2269 286.546 28.7384 287.68 30.2499 288.624C36.2957 292.529 42.9712 294.103 50.2766 292.025C50.9063 288.373 50.5914 285.035 49.6467 281.949C49.1429 280.437 48.5132 278.926 47.6945 277.54C46.8758 276.092 45.9312 274.769 44.9865 273.384C41.0819 267.968 35.036 263.245 28.9272 259.025C23.0074 254.806 16.7726 251.153 11.9864 248.508C7.13714 245.926 4.05139 244.289 4.05139 244.289C4.05139 244.289 4.17726 245.17 4.55512 246.745C4.99596 248.319 5.62578 250.523 6.57044 253.168C8.39677 258.458 10.9159 265.575 15.0724 272.061C17.0877 275.336 19.3547 278.548 21.8108 281.382Z" fill="#BBA182"/>
<path d="M61.2344 278.547C62.6829 281.381 64.7613 283.963 67.6582 285.978C74.2708 282.2 78.0492 276.532 80.0645 270.36C80.5683 268.849 80.9462 267.274 81.2611 265.637C81.387 264.818 81.513 264.062 81.6389 263.244C81.7649 262.425 81.891 261.606 82.017 260.788C82.4578 257.513 82.5206 254.301 82.4577 251.152C82.0798 244.917 81.639 239.061 80.8832 234.778C80.5054 232.637 80.1275 230.873 79.8756 229.677C79.6866 228.48 79.5608 227.788 79.5608 227.788C79.5608 227.788 78.9309 228.354 77.9233 229.362C76.8527 230.37 75.5302 231.881 74.0188 233.77C70.9329 237.549 67.0912 242.965 63.9424 249.263C60.9825 255.497 59.0302 262.551 59.0932 269.227C59.0932 270.927 59.3452 272.501 59.723 274.076C59.9749 275.65 60.5417 277.099 61.2344 278.547Z" fill="#BBA182"/>
<path d="M9.15189 221.366C10.0965 223.066 11.0411 224.704 12.1747 226.152C13.3083 227.663 14.568 229.049 15.8905 230.246C21.1176 235.284 27.3522 238.181 34.9095 237.488C36.232 234.024 36.6098 230.749 36.232 227.538C36.043 225.963 35.6653 224.389 35.1615 222.814C34.6576 221.24 34.1537 219.728 33.461 218.217C32.0755 215.131 30.1231 212.171 27.9189 209.274C26.7854 207.826 25.5889 206.377 24.5183 204.992C23.3847 203.543 22.1251 202.158 20.9286 200.835C16.0164 195.356 10.5373 190.381 6.69569 186.665C2.79111 182.95 0.0201337 180.62 0.0201337 180.62C0.0201337 180.62 -0.105767 184.398 0.272096 190.066C0.461027 192.9 1.02789 196.175 1.72064 199.702C2.03552 201.465 2.47619 203.291 2.91703 205.118C3.35787 206.944 3.79877 208.833 4.55449 210.66C5.68808 214.312 7.26258 217.965 9.15189 221.366Z" fill="#BBA182"/>
<path d="M52.9202 233.455C60.1626 230.999 64.9489 226.213 68.0978 220.671C68.9165 219.286 69.5463 217.9 70.1761 216.389C70.8689 214.94 71.4985 213.429 72.0023 211.917C73.0729 208.894 73.8288 205.871 74.3326 202.911C74.8994 199.952 75.5291 197.055 75.781 194.41C75.9699 193.087 76.0958 191.765 76.1588 190.568C76.2218 189.371 76.2848 188.238 76.4108 187.167C76.8516 183.011 76.7886 180.303 76.7886 180.303C76.7886 180.303 74.0177 181.814 69.9872 184.711C68.9795 185.404 67.9089 186.223 66.7753 187.104C65.6417 187.986 64.5081 188.994 63.3745 190.001C61.1703 192.08 58.8401 194.536 56.6989 197.181C55.6283 198.503 54.5577 199.889 53.5501 201.4C53.0462 202.093 52.5425 202.849 52.1017 203.604C51.6609 204.36 51.283 205.116 50.9051 205.871C49.3937 208.957 48.26 212.169 47.6302 215.444C47.3153 217.081 47.1265 218.656 47.1895 220.293C47.2525 221.868 47.5044 223.442 47.9452 224.953C48.8899 228.102 50.4641 230.936 52.9202 233.455Z" fill="#BBA182"/>
<path d="M26.7226 142.265C25.0222 138.99 23.1957 135.841 21.4324 132.944C19.606 129.984 17.9687 127.276 16.5832 125.009C13.7492 120.475 11.671 117.452 11.671 117.452C11.671 117.452 10.6003 121.041 9.46674 126.583C9.0259 129.417 8.64815 132.692 8.39624 136.282C8.27028 138.108 8.14421 139.934 8.08124 141.824C8.08124 143.713 8.20731 145.665 8.39624 147.618C8.71112 151.522 9.2148 155.49 10.2224 159.206C11.356 162.921 12.8046 166.511 14.6309 169.534C18.2206 175.706 24.0145 179.988 31.5087 181.059C32.5164 179.547 33.2092 177.973 33.776 176.461C34.2798 174.887 34.8465 173.375 35.0354 171.801C35.5392 168.652 35.2874 165.377 34.5317 162.102C33.9019 158.828 32.8944 155.49 31.4459 152.152C30.0604 148.94 28.297 145.539 26.7226 142.265Z" fill="#BBA182"/>
<path d="M67.468 171.11C69.7352 168.906 71.6246 166.387 73.262 163.805C75.0253 161.223 76.5998 158.578 77.8594 155.87C78.4892 154.547 78.993 153.225 79.6227 151.902C80.2525 150.643 80.8192 149.383 81.3231 148.124C82.3307 145.668 83.0864 143.4 83.7162 141.511C85.2277 137.669 85.8574 135.087 85.8574 135.087C85.8574 135.087 82.7715 135.843 78.1742 137.544C73.4509 139.244 67.7829 142.078 62.178 146.108C60.7925 147.116 59.344 148.187 58.0845 149.32C56.8249 150.454 55.6283 151.713 54.4947 152.973C52.2276 155.555 50.2123 158.326 48.8268 161.286C47.5673 164.246 46.8746 167.395 46.8746 170.481C46.8746 172.055 47.0006 173.566 47.5044 175.141C48.0082 176.715 48.7009 178.227 49.6456 179.738C57.3288 178.982 62.8077 175.519 67.468 171.11Z" fill="#BBA182"/>
<path d="M45.3643 122.363C46.372 121.041 47.1906 119.655 47.8203 118.207C48.4501 116.759 48.891 115.247 49.2059 113.673C49.5207 112.098 49.6467 110.461 49.8357 108.823C50.0876 105.549 49.8357 102.022 49.2689 98.4322C48.7021 94.8425 48.0724 91.3158 47.1907 87.6631C45.3644 80.4838 43.349 73.7452 41.5857 68.5811C39.8223 63.417 38.5627 60.1421 38.5627 60.1421C38.5627 60.1421 38.059 60.8979 37.3033 62.3463C36.5476 63.7948 35.5398 65.8731 34.4062 68.3922C32.0131 73.4303 29.6201 80.6097 28.0456 88.167C27.4159 92.0086 27.038 95.9761 27.038 99.7547C26.975 101.644 27.227 103.596 27.4789 105.423C27.7308 107.249 28.1087 109.075 28.6755 110.776C29.7461 114.239 31.1314 117.262 33.4616 119.907C35.7288 122.552 38.5628 124.631 42.0266 126.142C43.3491 125.009 44.4197 123.686 45.3643 122.363Z" fill="#BBA182"/>
<path d="M105.067 95.0315C105.696 94.0238 106.074 93.457 106.074 93.457C106.074 93.457 105.256 93.457 103.807 93.52C102.359 93.583 100.406 93.7089 98.0131 94.0238C95.62 94.3387 92.786 94.7795 89.7631 95.4722C88.2517 95.8501 86.6773 96.228 85.1029 96.6688C83.5914 97.1726 82.0171 97.6765 80.4426 98.3692C77.2938 99.6288 74.0818 101.14 71.2478 103.03C68.4769 104.919 65.8948 107.123 63.8166 109.642C62.746 110.839 61.9273 112.224 61.2345 113.61C60.5418 114.995 59.9749 116.444 59.597 117.955C59.2192 119.467 59.0303 121.041 59.0303 122.615C59.0933 124.253 59.4083 125.89 59.9751 127.591C63.6907 128.22 67.1544 128.031 70.3663 127.339C73.5151 126.646 76.6009 125.449 79.3089 123.875C80.6944 123.119 81.9539 122.238 83.2135 121.293C83.8432 120.852 84.4101 120.348 85.0398 119.844C85.6696 119.341 86.2365 118.837 86.8662 118.333C89.2594 116.318 91.3377 114.051 93.227 111.783C95.2423 109.579 97.0684 107.312 98.5799 105.171C98.9577 104.667 99.3358 104.1 99.7136 103.596C100.091 103.093 100.469 102.589 100.847 102.085C101.54 101.077 102.17 100.196 102.736 99.3139C103.618 97.5505 104.437 96.1021 105.067 95.0315Z" fill="#BBA182"/>
<path d="M65.8315 76.014C69.0434 74.3766 71.4995 72.2354 73.3258 69.6533C75.2781 67.1972 76.6005 64.3003 77.5452 61.0884C79.4975 54.7907 79.8124 47.2965 79.7494 40.0541C79.6864 38.2278 79.6234 36.4014 79.4974 34.6381C79.4345 32.8747 79.3086 31.1743 79.1826 29.4739C78.9307 26.1361 78.6158 22.9873 78.3009 20.3422C77.7341 15.0522 77.1673 11.5254 77.1673 11.5254C77.1673 11.5254 76.5377 12.2182 75.5301 13.4147C74.4594 14.6113 73.0109 16.3117 71.3735 18.5789C69.7361 20.7831 67.8468 23.3651 66.0835 26.388C64.3201 29.4109 62.4937 32.6227 61.0452 36.1495C59.5967 39.6762 58.2742 43.3288 57.4555 47.0445C56.6997 50.7601 56.2589 54.4758 56.4478 58.0025C57.0146 65.056 59.7857 71.4796 65.8315 76.014Z" fill="#BBA182"/>
<path d="M118.732 72.1713C121.188 70.4079 123.455 68.5817 125.47 66.8183C127.486 65.0549 129.375 63.4174 130.823 61.906C132.272 60.3945 133.594 59.198 134.413 58.3164C135.232 57.4347 135.673 56.9309 135.673 56.9309C135.673 56.9309 132.524 56.2381 127.611 55.7343C125.155 55.4824 122.321 55.3564 119.235 55.4194C116.15 55.4194 112.749 55.6713 109.411 56.1752C102.609 57.1828 95.8081 59.45 90.6439 63.3545C88.1249 65.3068 85.9836 67.6999 84.4721 70.4079C83.0866 73.1789 82.3939 76.3278 82.5198 79.7916C89.5103 82.8774 96.1229 82.5625 102.169 80.8622C105.255 79.9805 108.152 78.7209 110.86 77.2095C113.694 75.698 116.402 73.9976 118.732 72.1713Z" fill="#BBA182"/>
<path fill-rule="evenodd" clip-rule="evenodd" d="M180 366.714C177.391 363.716 174.411 360.978 171.381 358.466C166.595 354.561 161.683 351.287 157.967 348.956C154.252 346.626 151.732 345.304 151.732 345.304C151.732 345.304 151.795 346.122 151.921 347.571C152.047 348.956 152.299 351.035 152.677 353.491C153.433 358.34 155.007 364.89 157.841 371.25C160.675 377.611 164.832 383.846 170.248 387.939C172.956 389.954 175.979 391.466 179.191 392.096C179.459 392.148 179.729 392.195 180 392.236V366.714Z" fill="#BBA182"/>
<path fill-rule="evenodd" clip-rule="evenodd" d="M105.255 358.34C125.156 374.84 149.465 386.113 173.27 395.748C175.448 396.626 177.693 397.566 180 398.56V396.134C162.739 388.404 146.783 380.476 133.343 372.887C116.78 363.567 101.791 352.105 89.3847 337.62C76.9782 323.135 68.0985 306.006 60.9191 288.498C47.316 255.246 38.6882 220.861 40.8294 184.775C43.2855 142.706 59.8484 102.401 82.898 67.4484C88.8179 58.5057 95.1785 49.5629 102.169 41.187C104.688 41.3129 107.018 41.061 109.285 40.4942C112.308 39.7385 115.079 38.29 117.661 36.5266C118.921 35.645 120.181 34.6374 121.314 33.5038C122.511 32.4332 123.644 31.2995 124.715 30.04C126.856 27.5839 128.934 24.9389 130.761 22.2309C134.413 16.8149 137.562 11.2099 139.829 6.99046C139.973 6.71899 140.114 6.45359 140.251 6.19464C141.196 4.4112 141.979 2.93409 142.474 1.88924C142.559 1.72018 142.639 1.56474 142.713 1.42048C142.915 1.02734 143.075 0.717218 143.167 0.44079C143.293 0.125904 143.356 0 143.356 0H142.852C142.474 0.0629771 141.97 0.125947 141.278 0.188924C139.892 0.377855 137.877 0.755671 135.484 1.32247C130.698 2.45605 124.274 4.59726 118.039 7.99802C111.868 11.3988 105.885 15.9961 102.169 21.664C100.28 24.435 98.9571 27.5209 98.3903 30.7328C97.8865 33.3778 98.0126 36.2117 98.7053 39.1717C82.4572 58.5056 68.9802 80.7366 58.589 103.031C45.6787 130.615 37.9325 160.403 36.7359 190.821C35.4134 225.773 44.9228 259.277 58.022 291.332C68.6022 316.964 83.6537 340.391 105.255 358.34Z" fill="#BBA182"/>
</g>
</svg>
