<svg width="548" height="704" viewBox="0 0 548 704" fill="none" xmlns="http://www.w3.org/2000/svg">
<g opacity="0.1">
<mask id="mask0" mask-type="alpha" maskUnits="userSpaceOnUse" x="-156" y="0" width="704" height="704">
<circle cx="195.502" cy="351.502" r="287" transform="rotate(-75 195.502 351.502)" fill="url(#paint0_radial)"/>
</mask>
<g mask="url(#mask0)">
<line x1="-197.047" y1="245.586" x2="300.051" y2="-41.4135" stroke="white" stroke-width="2"/>
<line x1="-49.9872" y1="500.302" x2="447.111" y2="213.302" stroke="white" stroke-width="2"/>
<line x1="-193.547" y1="251.649" x2="303.551" y2="-35.3514" stroke="white" stroke-width="2"/>
<line x1="-46.4872" y1="506.365" x2="450.611" y2="219.365" stroke="white" stroke-width="2"/>
<line x1="-190.047" y1="257.711" x2="307.051" y2="-29.2891" stroke="white" stroke-width="2"/>
<line x1="-42.9872" y1="512.427" x2="454.111" y2="225.427" stroke="white" stroke-width="2"/>
<line x1="-186.547" y1="263.773" x2="310.551" y2="-23.227" stroke="white" stroke-width="2"/>
<line x1="-39.4872" y1="518.489" x2="457.611" y2="231.489" stroke="white" stroke-width="2"/>
<line x1="-183.047" y1="269.835" x2="314.051" y2="-17.1648" stroke="white" stroke-width="2"/>
<line x1="-35.9872" y1="524.551" x2="461.111" y2="237.551" stroke="white" stroke-width="2"/>
<line x1="-179.547" y1="275.897" x2="317.551" y2="-11.1026" stroke="white" stroke-width="2"/>
<line x1="-32.4872" y1="530.613" x2="464.611" y2="243.613" stroke="white" stroke-width="2"/>
<line x1="-176.047" y1="281.96" x2="321.051" y2="-5.04045" stroke="white" stroke-width="2"/>
<line x1="-28.9872" y1="536.675" x2="468.111" y2="249.675" stroke="white" stroke-width="2"/>
<line x1="-172.547" y1="288.022" x2="324.551" y2="1.02181" stroke="white" stroke-width="2"/>
<line x1="-25.4872" y1="542.738" x2="471.611" y2="255.738" stroke="white" stroke-width="2"/>
<line x1="-169.047" y1="294.084" x2="328.051" y2="7.08394" stroke="white" stroke-width="2"/>
<line x1="-21.9872" y1="548.8" x2="475.111" y2="261.8" stroke="white" stroke-width="2"/>
<line x1="-165.547" y1="300.146" x2="331.551" y2="13.1461" stroke="white" stroke-width="2"/>
<line x1="-18.4872" y1="554.862" x2="478.611" y2="267.862" stroke="white" stroke-width="2"/>
<line x1="-162.047" y1="306.208" x2="335.051" y2="19.2083" stroke="white" stroke-width="2"/>
<line x1="-14.9872" y1="560.924" x2="482.111" y2="273.924" stroke="white" stroke-width="2"/>
<line x1="-158.547" y1="312.27" x2="338.551" y2="25.2705" stroke="white" stroke-width="2"/>
<line x1="-11.4872" y1="566.986" x2="485.611" y2="279.986" stroke="white" stroke-width="2"/>
<line x1="-155.047" y1="318.333" x2="342.051" y2="31.3326" stroke="white" stroke-width="2"/>
<line x1="-7.98718" y1="573.049" x2="489.111" y2="286.049" stroke="white" stroke-width="2"/>
<line x1="-151.547" y1="324.395" x2="345.551" y2="37.3949" stroke="white" stroke-width="2"/>
<line x1="-4.48718" y1="579.111" x2="492.611" y2="292.111" stroke="white" stroke-width="2"/>
<line x1="-148.047" y1="330.457" x2="349.051" y2="43.457" stroke="white" stroke-width="2"/>
<line x1="-0.987183" y1="585.173" x2="496.111" y2="298.173" stroke="white" stroke-width="2"/>
<line x1="-144.547" y1="336.519" x2="352.551" y2="49.5191" stroke="white" stroke-width="2"/>
<line x1="2.51282" y1="591.235" x2="499.611" y2="304.235" stroke="white" stroke-width="2"/>
<line x1="-141.047" y1="342.581" x2="356.051" y2="55.5814" stroke="white" stroke-width="2"/>
<line x1="6.01282" y1="597.297" x2="503.111" y2="310.297" stroke="white" stroke-width="2"/>
<line x1="-137.547" y1="348.643" x2="359.551" y2="61.6435" stroke="white" stroke-width="2"/>
<line x1="9.51282" y1="603.359" x2="506.611" y2="316.359" stroke="white" stroke-width="2"/>
<line x1="-134.047" y1="354.706" x2="363.051" y2="67.7058" stroke="white" stroke-width="2"/>
<line x1="13.0128" y1="609.422" x2="510.111" y2="322.422" stroke="white" stroke-width="2"/>
<line x1="-130.547" y1="360.768" x2="366.551" y2="73.7679" stroke="white" stroke-width="2"/>
<line x1="16.5128" y1="615.484" x2="513.611" y2="328.484" stroke="white" stroke-width="2"/>
<line x1="-127.047" y1="366.83" x2="370.051" y2="79.83" stroke="white" stroke-width="2"/>
<line x1="20.0128" y1="621.546" x2="517.111" y2="334.546" stroke="white" stroke-width="2"/>
<line x1="-123.547" y1="372.892" x2="373.551" y2="85.8923" stroke="white" stroke-width="2"/>
<line x1="23.5128" y1="627.608" x2="520.611" y2="340.608" stroke="white" stroke-width="2"/>
<line x1="-120.047" y1="378.954" x2="377.051" y2="91.9544" stroke="white" stroke-width="2"/>
<line x1="27.0128" y1="633.67" x2="524.111" y2="346.67" stroke="white" stroke-width="2"/>
<line x1="-116.547" y1="385.017" x2="380.551" y2="98.0166" stroke="white" stroke-width="2"/>
<line x1="30.5128" y1="639.732" x2="527.611" y2="352.733" stroke="white" stroke-width="2"/>
<line x1="-113.047" y1="391.079" x2="384.051" y2="104.079" stroke="white" stroke-width="2"/>
<line x1="34.0128" y1="645.795" x2="531.111" y2="358.795" stroke="white" stroke-width="2"/>
<line x1="-109.547" y1="397.141" x2="387.551" y2="110.141" stroke="white" stroke-width="2"/>
<line x1="37.5128" y1="651.857" x2="534.611" y2="364.857" stroke="white" stroke-width="2"/>
<line x1="-106.047" y1="403.203" x2="391.051" y2="116.203" stroke="white" stroke-width="2"/>
<line x1="41.0128" y1="657.919" x2="538.111" y2="370.919" stroke="white" stroke-width="2"/>
<line x1="-102.547" y1="409.265" x2="394.551" y2="122.265" stroke="white" stroke-width="2"/>
<line x1="44.5128" y1="663.981" x2="541.611" y2="376.981" stroke="white" stroke-width="2"/>
<line x1="-99.0475" y1="415.327" x2="398.051" y2="128.327" stroke="white" stroke-width="2"/>
<line x1="48.0128" y1="670.043" x2="545.111" y2="383.043" stroke="white" stroke-width="2"/>
<line x1="-95.5475" y1="421.39" x2="401.551" y2="134.39" stroke="white" stroke-width="2"/>
<line x1="51.5128" y1="676.106" x2="548.611" y2="389.106" stroke="white" stroke-width="2"/>
<line x1="-92.0475" y1="427.452" x2="405.051" y2="140.452" stroke="white" stroke-width="2"/>
<line x1="55.0128" y1="682.168" x2="552.111" y2="395.168" stroke="white" stroke-width="2"/>
<line x1="-88.5475" y1="433.514" x2="408.551" y2="146.514" stroke="white" stroke-width="2"/>
<line x1="58.5128" y1="688.23" x2="555.611" y2="401.23" stroke="white" stroke-width="2"/>
<line x1="-85.0475" y1="439.576" x2="412.051" y2="152.576" stroke="white" stroke-width="2"/>
<line x1="62.0128" y1="694.292" x2="559.111" y2="407.292" stroke="white" stroke-width="2"/>
<line x1="-81.5475" y1="445.638" x2="415.551" y2="158.638" stroke="white" stroke-width="2"/>
<line x1="65.5128" y1="700.354" x2="562.611" y2="413.354" stroke="white" stroke-width="2"/>
<line x1="-78.0475" y1="451.701" x2="419.051" y2="164.701" stroke="white" stroke-width="2"/>
<line x1="69.0128" y1="706.416" x2="566.111" y2="419.416" stroke="white" stroke-width="2"/>
<line x1="-74.5475" y1="457.763" x2="422.551" y2="170.763" stroke="white" stroke-width="2"/>
<line x1="72.5128" y1="712.479" x2="569.611" y2="425.479" stroke="white" stroke-width="2"/>
<line x1="-71.0475" y1="463.825" x2="426.051" y2="176.825" stroke="white" stroke-width="2"/>
<line x1="76.0128" y1="718.541" x2="573.111" y2="431.541" stroke="white" stroke-width="2"/>
<line x1="-67.5475" y1="469.887" x2="429.551" y2="182.887" stroke="white" stroke-width="2"/>
<line x1="79.5128" y1="724.603" x2="576.611" y2="437.603" stroke="white" stroke-width="2"/>
<line x1="-64.0475" y1="475.949" x2="433.051" y2="188.949" stroke="white" stroke-width="2"/>
<line x1="83.0128" y1="730.665" x2="580.111" y2="443.665" stroke="white" stroke-width="2"/>
<line x1="-60.5475" y1="482.011" x2="436.551" y2="195.011" stroke="white" stroke-width="2"/>
<line x1="86.5128" y1="736.727" x2="583.611" y2="449.727" stroke="white" stroke-width="2"/>
<line x1="-57.0475" y1="488.074" x2="440.051" y2="201.074" stroke="white" stroke-width="2"/>
<line x1="90.0128" y1="742.79" x2="587.111" y2="455.79" stroke="white" stroke-width="2"/>
<line x1="-53.5475" y1="494.136" x2="443.551" y2="207.136" stroke="white" stroke-width="2"/>
<line x1="93.5128" y1="748.852" x2="590.611" y2="461.852" stroke="white" stroke-width="2"/>
</g>
</g>
<defs>
<radialGradient id="paint0_radial" cx="0" cy="0" r="1" gradientUnits="userSpaceOnUse" gradientTransform="translate(195.502 351.502) rotate(90) scale(287)">
<stop stop-color="#C4C4C4"/>
<stop offset="1" stop-color="#C4C4C4" stop-opacity="0"/>
</radialGradient>
</defs>
</svg>
