<svg width="595" height="626" viewBox="0 0 595 626" fill="none" xmlns="http://www.w3.org/2000/svg">
<g opacity="0.1">
<mask id="mask0" mask-type="alpha" maskUnits="userSpaceOnUse" x="-109" y="-78" width="704" height="704">
<circle cx="242.502" cy="273.502" r="287" transform="rotate(-75 242.502 273.502)" fill="url(#paint0_radial)"/>
</mask>
<g mask="url(#mask0)">
<line x1="-150.047" y1="167.586" x2="347.051" y2="-119.414" stroke="white" stroke-width="2"/>
<line x1="-2.98718" y1="422.302" x2="494.111" y2="135.302" stroke="white" stroke-width="2"/>
<line x1="-146.547" y1="173.649" x2="350.551" y2="-113.351" stroke="white" stroke-width="2"/>
<line x1="0.512817" y1="428.364" x2="497.611" y2="141.364" stroke="white" stroke-width="2"/>
<line x1="-143.047" y1="179.711" x2="354.051" y2="-107.289" stroke="white" stroke-width="2"/>
<line x1="4.01282" y1="434.427" x2="501.111" y2="147.427" stroke="white" stroke-width="2"/>
<line x1="-139.547" y1="185.773" x2="357.551" y2="-101.227" stroke="white" stroke-width="2"/>
<line x1="7.51282" y1="440.489" x2="504.611" y2="153.489" stroke="white" stroke-width="2"/>
<line x1="-136.047" y1="191.835" x2="361.051" y2="-95.1648" stroke="white" stroke-width="2"/>
<line x1="11.0128" y1="446.551" x2="508.111" y2="159.551" stroke="white" stroke-width="2"/>
<line x1="-132.547" y1="197.897" x2="364.551" y2="-89.1028" stroke="white" stroke-width="2"/>
<line x1="14.5128" y1="452.613" x2="511.611" y2="165.613" stroke="white" stroke-width="2"/>
<line x1="-129.047" y1="203.959" x2="368.051" y2="-83.0406" stroke="white" stroke-width="2"/>
<line x1="18.0128" y1="458.675" x2="515.111" y2="171.675" stroke="white" stroke-width="2"/>
<line x1="-125.547" y1="210.022" x2="371.551" y2="-76.9783" stroke="white" stroke-width="2"/>
<line x1="21.5128" y1="464.737" x2="518.611" y2="177.738" stroke="white" stroke-width="2"/>
<line x1="-122.047" y1="216.084" x2="375.051" y2="-70.9163" stroke="white" stroke-width="2"/>
<line x1="25.0128" y1="470.8" x2="522.111" y2="183.8" stroke="white" stroke-width="2"/>
<line x1="-118.547" y1="222.146" x2="378.551" y2="-64.854" stroke="white" stroke-width="2"/>
<line x1="28.5128" y1="476.862" x2="525.611" y2="189.862" stroke="white" stroke-width="2"/>
<line x1="-115.047" y1="228.208" x2="382.051" y2="-58.7918" stroke="white" stroke-width="2"/>
<line x1="32.0128" y1="482.924" x2="529.111" y2="195.924" stroke="white" stroke-width="2"/>
<line x1="-111.547" y1="234.27" x2="385.551" y2="-52.7295" stroke="white" stroke-width="2"/>
<line x1="35.5128" y1="488.986" x2="532.611" y2="201.986" stroke="white" stroke-width="2"/>
<line x1="-108.047" y1="240.332" x2="389.051" y2="-46.6675" stroke="white" stroke-width="2"/>
<line x1="39.0128" y1="495.049" x2="536.111" y2="208.049" stroke="white" stroke-width="2"/>
<line x1="-104.547" y1="246.395" x2="392.551" y2="-40.6053" stroke="white" stroke-width="2"/>
<line x1="42.5128" y1="501.111" x2="539.611" y2="214.111" stroke="white" stroke-width="2"/>
<line x1="-101.047" y1="252.457" x2="396.051" y2="-34.543" stroke="white" stroke-width="2"/>
<line x1="46.0128" y1="507.173" x2="543.111" y2="220.173" stroke="white" stroke-width="2"/>
<line x1="-97.5475" y1="258.519" x2="399.551" y2="-28.481" stroke="white" stroke-width="2"/>
<line x1="49.5128" y1="513.235" x2="546.611" y2="226.235" stroke="white" stroke-width="2"/>
<line x1="-94.0475" y1="264.581" x2="403.051" y2="-22.4187" stroke="white" stroke-width="2"/>
<line x1="53.0128" y1="519.297" x2="550.111" y2="232.297" stroke="white" stroke-width="2"/>
<line x1="-90.5475" y1="270.643" x2="406.551" y2="-16.3565" stroke="white" stroke-width="2"/>
<line x1="56.5128" y1="525.359" x2="553.611" y2="238.359" stroke="white" stroke-width="2"/>
<line x1="-87.0475" y1="276.706" x2="410.051" y2="-10.2945" stroke="white" stroke-width="2"/>
<line x1="60.0128" y1="531.422" x2="557.111" y2="244.422" stroke="white" stroke-width="2"/>
<line x1="-83.5475" y1="282.768" x2="413.551" y2="-4.23222" stroke="white" stroke-width="2"/>
<line x1="63.5128" y1="537.484" x2="560.611" y2="250.484" stroke="white" stroke-width="2"/>
<line x1="-80.0475" y1="288.83" x2="417.051" y2="1.83004" stroke="white" stroke-width="2"/>
<line x1="67.0128" y1="543.546" x2="564.111" y2="256.546" stroke="white" stroke-width="2"/>
<line x1="-76.5475" y1="294.892" x2="420.551" y2="7.89205" stroke="white" stroke-width="2"/>
<line x1="70.5128" y1="549.608" x2="567.611" y2="262.608" stroke="white" stroke-width="2"/>
<line x1="-73.0475" y1="300.954" x2="424.051" y2="13.9543" stroke="white" stroke-width="2"/>
<line x1="74.0128" y1="555.67" x2="571.111" y2="268.67" stroke="white" stroke-width="2"/>
<line x1="-69.5475" y1="307.017" x2="427.551" y2="20.0166" stroke="white" stroke-width="2"/>
<line x1="77.5128" y1="561.732" x2="574.611" y2="274.732" stroke="white" stroke-width="2"/>
<line x1="-66.0475" y1="313.079" x2="431.051" y2="26.0786" stroke="white" stroke-width="2"/>
<line x1="81.0128" y1="567.795" x2="578.111" y2="280.795" stroke="white" stroke-width="2"/>
<line x1="-62.5475" y1="319.141" x2="434.551" y2="32.1408" stroke="white" stroke-width="2"/>
<line x1="84.5128" y1="573.857" x2="581.611" y2="286.857" stroke="white" stroke-width="2"/>
<line x1="-59.0475" y1="325.203" x2="438.051" y2="38.2031" stroke="white" stroke-width="2"/>
<line x1="88.0128" y1="579.919" x2="585.111" y2="292.919" stroke="white" stroke-width="2"/>
<line x1="-55.5475" y1="331.265" x2="441.551" y2="44.2651" stroke="white" stroke-width="2"/>
<line x1="91.5128" y1="585.981" x2="588.611" y2="298.981" stroke="white" stroke-width="2"/>
<line x1="-52.0475" y1="337.327" x2="445.051" y2="50.3274" stroke="white" stroke-width="2"/>
<line x1="95.0128" y1="592.043" x2="592.111" y2="305.043" stroke="white" stroke-width="2"/>
<line x1="-48.5475" y1="343.39" x2="448.551" y2="56.3896" stroke="white" stroke-width="2"/>
<line x1="98.5128" y1="598.105" x2="595.611" y2="311.105" stroke="white" stroke-width="2"/>
<line x1="-45.0475" y1="349.452" x2="452.051" y2="62.4516" stroke="white" stroke-width="2"/>
<line x1="102.013" y1="604.168" x2="599.111" y2="317.168" stroke="white" stroke-width="2"/>
<line x1="-41.5475" y1="355.514" x2="455.551" y2="68.5139" stroke="white" stroke-width="2"/>
<line x1="105.513" y1="610.23" x2="602.611" y2="323.23" stroke="white" stroke-width="2"/>
<line x1="-38.0475" y1="361.576" x2="459.051" y2="74.5761" stroke="white" stroke-width="2"/>
<line x1="109.013" y1="616.292" x2="606.111" y2="329.292" stroke="white" stroke-width="2"/>
<line x1="-34.5475" y1="367.638" x2="462.551" y2="80.6381" stroke="white" stroke-width="2"/>
<line x1="112.513" y1="622.354" x2="609.611" y2="335.354" stroke="white" stroke-width="2"/>
<line x1="-31.0475" y1="373.7" x2="466.051" y2="86.7004" stroke="white" stroke-width="2"/>
<line x1="116.013" y1="628.416" x2="613.111" y2="341.416" stroke="white" stroke-width="2"/>
<line x1="-27.5475" y1="379.763" x2="469.551" y2="92.7627" stroke="white" stroke-width="2"/>
<line x1="119.513" y1="634.478" x2="616.611" y2="347.478" stroke="white" stroke-width="2"/>
<line x1="-24.0475" y1="385.825" x2="473.051" y2="98.8249" stroke="white" stroke-width="2"/>
<line x1="123.013" y1="640.541" x2="620.111" y2="353.541" stroke="white" stroke-width="2"/>
<line x1="-20.5475" y1="391.887" x2="476.551" y2="104.887" stroke="white" stroke-width="2"/>
<line x1="126.513" y1="646.603" x2="623.611" y2="359.603" stroke="white" stroke-width="2"/>
<line x1="-17.0475" y1="397.949" x2="480.051" y2="110.949" stroke="white" stroke-width="2"/>
<line x1="130.013" y1="652.665" x2="627.111" y2="365.665" stroke="white" stroke-width="2"/>
<line x1="-13.5475" y1="404.011" x2="483.551" y2="117.011" stroke="white" stroke-width="2"/>
<line x1="133.513" y1="658.727" x2="630.611" y2="371.727" stroke="white" stroke-width="2"/>
<line x1="-10.0475" y1="410.073" x2="487.051" y2="123.073" stroke="white" stroke-width="2"/>
<line x1="137.013" y1="664.789" x2="634.111" y2="377.79" stroke="white" stroke-width="2"/>
<line x1="-6.54749" y1="416.136" x2="490.551" y2="129.136" stroke="white" stroke-width="2"/>
<line x1="140.513" y1="670.852" x2="637.611" y2="383.852" stroke="white" stroke-width="2"/>
</g>
</g>
<defs>
<radialGradient id="paint0_radial" cx="0" cy="0" r="1" gradientUnits="userSpaceOnUse" gradientTransform="translate(242.502 273.502) rotate(90) scale(287)">
<stop stop-color="#C4C4C4"/>
<stop offset="1" stop-color="#C4C4C4" stop-opacity="0"/>
</radialGradient>
</defs>
</svg>
