<svg width="168" height="20" viewBox="0 0 168 20" fill="none" xmlns="http://www.w3.org/2000/svg">
<path d="M14.6337 2.386L11.7997 5.376C11.4357 4.908 10.9417 4.52667 10.3177 4.232C9.71107 3.93733 9.11307 3.79 8.52373 3.79C7.8304 3.79 7.22373 3.93733 6.70373 4.232C6.20107 4.50933 5.94973 4.97733 5.94973 5.636C5.94973 5.93067 6.0104 6.19067 6.13173 6.416C6.25307 6.624 6.4524 6.81467 6.72973 6.988C7.0244 7.144 7.3104 7.28267 7.58774 7.404C7.86507 7.508 8.26374 7.638 8.78374 7.794C9.45973 8.01933 9.9884 8.20133 10.3697 8.34C10.7511 8.47867 11.2364 8.71267 11.8257 9.042C12.4324 9.354 12.9004 9.68333 13.2297 10.03C13.5591 10.3767 13.8537 10.8447 14.1137 11.434C14.3737 12.006 14.5037 12.6387 14.5037 13.332C14.5037 15.3253 13.8191 16.8507 12.4497 17.908C11.0977 18.948 9.43373 19.468 7.45773 19.468C6.12307 19.468 4.8404 19.234 3.60973 18.766C2.37907 18.298 1.36507 17.648 0.567734 16.816L3.47973 13.852C3.9304 14.424 4.51973 14.892 5.24773 15.256C5.99307 15.62 6.72973 15.802 7.45773 15.802C8.20307 15.802 8.80973 15.646 9.27773 15.334C9.76307 15.0047 10.0057 14.4933 10.0057 13.8C10.0057 13.5227 9.9364 13.28 9.79773 13.072C9.6764 12.8467 9.53773 12.6647 9.38173 12.526C9.22573 12.37 8.9484 12.2053 8.54974 12.032C8.15107 11.8587 7.81307 11.7287 7.53573 11.642C7.2584 11.538 6.80773 11.382 6.18373 11.174C5.50773 10.9487 4.92707 10.7147 4.44173 10.472C3.9564 10.2293 3.47107 9.90867 2.98573 9.51C2.5004 9.11133 2.12773 8.60867 1.86773 8.002C1.60773 7.39533 1.47773 6.69333 1.47773 5.896C1.47773 4.92533 1.68573 4.05867 2.10173 3.296C2.51773 2.516 3.0724 1.90933 3.76573 1.476C4.45907 1.02533 5.21307 0.687332 6.02773 0.461998C6.85973 0.236666 7.71773 0.124 8.60173 0.124C9.6764 0.124 10.7511 0.323333 11.8257 0.722C12.9177 1.10333 13.8537 1.658 14.6337 2.386ZM30.185 4.388H24.985V19H20.539V4.388H15.339V0.592H30.185V4.388ZM47.2684 19H42.0684L38.0904 11.694H36.5824V19H32.2144V0.592H39.2344C40.1704 0.592 41.0371 0.687333 41.8344 0.877999C42.6317 1.06867 43.3771 1.372 44.0704 1.788C44.7637 2.204 45.3011 2.78467 45.6824 3.53C46.0811 4.27533 46.2804 5.15067 46.2804 6.156C46.2804 7.36933 45.9424 8.40933 45.2664 9.276C44.5904 10.1427 43.6544 10.758 42.4584 11.122L47.2684 19ZM41.8864 6.234C41.8864 4.86467 40.8984 4.18 38.9224 4.18H36.5564V8.47H38.6624C40.8117 8.47 41.8864 7.72467 41.8864 6.234ZM68.6426 9.718C68.6426 12.6127 67.698 14.97 65.8086 16.79C63.9193 18.5927 61.5186 19.494 58.6066 19.494C55.712 19.494 53.32 18.5927 51.4306 16.79C49.5413 14.97 48.5966 12.6127 48.5966 9.718C48.5966 6.806 49.5326 4.47467 51.4046 2.724C53.294 0.973332 55.6946 0.0979985 58.6066 0.0979985C61.536 0.0979985 63.9366 0.973332 65.8086 2.724C67.698 4.47467 68.6426 6.806 68.6426 9.718ZM63.8846 9.718C63.8846 8.08867 63.3906 6.74533 62.4026 5.688C61.4146 4.63067 60.1493 4.102 58.6066 4.102C57.064 4.102 55.7986 4.63067 54.8106 5.688C53.84 6.74533 53.3546 8.08867 53.3546 9.718C53.3546 11.382 53.84 12.7513 54.8106 13.826C55.7986 14.9007 57.064 15.438 58.6066 15.438C60.1493 15.438 61.4146 14.9007 62.4026 13.826C63.3906 12.7513 63.8846 11.382 63.8846 9.718ZM86.748 0.592L79.676 11.2V19H75.23V11.2L68.314 0.592H73.696L77.622 7.404L81.548 0.592H86.748Z" fill="white"/>
<path d="M104.193 19H99.7466V11.304H92.5706V19H88.1246V0.592H92.5706V7.56H99.7466V0.592H104.193V19ZM127.168 9.718C127.168 12.6127 126.223 14.97 124.334 16.79C122.445 18.5927 120.044 19.494 117.132 19.494C114.237 19.494 111.845 18.5927 109.956 16.79C108.067 14.97 107.122 12.6127 107.122 9.718C107.122 6.806 108.058 4.47467 109.93 2.724C111.819 0.973332 114.22 0.0979985 117.132 0.0979985C120.061 0.0979985 122.462 0.973332 124.334 2.724C126.223 4.47467 127.168 6.806 127.168 9.718ZM122.41 9.718C122.41 8.08867 121.916 6.74533 120.928 5.688C119.94 4.63067 118.675 4.102 117.132 4.102C115.589 4.102 114.324 4.63067 113.336 5.688C112.365 6.74533 111.88 8.08867 111.88 9.718C111.88 11.382 112.365 12.7513 113.336 13.826C114.324 14.9007 115.589 15.438 117.132 15.438C118.675 15.438 119.94 14.9007 120.928 13.826C121.916 12.7513 122.41 11.382 122.41 9.718ZM151.129 19H146.787L146.891 5.974H146.813L142.029 19H138.909L134.255 5.974H134.177L134.281 19H130.095V0.592H136.413L140.599 12.396H140.703L144.707 0.592H151.129V19ZM167.771 19H154.927V0.592H167.303V4.362H159.217V7.82H166.861V11.382H159.217V15.204H167.771V19Z" fill="#BBA182"/>
</svg>
