<svg width="24" height="16" viewBox="0 0 24 16" fill="none" xmlns="http://www.w3.org/2000/svg">
<path d="M15.4268 8.11913L23.2726 13.0791V2.94971L15.4268 8.11913Z" fill="#BBA182"/>
<path d="M0 2.94971V13.0791L7.84578 8.11913L0 2.94971Z" fill="#BBA182"/>
<path d="M21.818 0H1.4545C0.728682 0 0.152685 0.541088 0.0435944 1.23781L11.6363 8.87559L23.2289 1.23781C23.1198 0.541088 22.5438 0 21.818 0Z" fill="#BBA182"/>
<path d="M14.0945 8.99804L12.0363 10.3537C11.9141 10.4337 11.7759 10.4729 11.6363 10.4729C11.4966 10.4729 11.3585 10.4337 11.2363 10.3537L9.17811 8.99658L0.046524 14.7726C0.158523 15.4635 0.731611 16.0002 1.45452 16.0002H21.818C22.541 16.0002 23.114 15.4635 23.226 14.7726L14.0945 8.99804Z" fill="#BBA182"/>
</svg>
