<svg width="130" height="130" viewBox="0 0 130 130" fill="none" xmlns="http://www.w3.org/2000/svg">
<path d="M92.9373 0H3.80859C1.70523 0 0 1.70523 0 3.80859V126.191C0 128.295 1.70523 130 3.80859 130H92.9373C95.0407 130 96.7459 128.295 96.7459 126.191V3.80859C96.7459 1.70523 95.0409 0 92.9373 0ZM39.9844 74.5581L28.4157 86.1265C27.7014 86.8408 26.7328 87.2419 25.7227 87.2419C24.7127 87.2419 23.7438 86.8408 23.0298 86.1263L17.5777 80.6741C16.0903 79.1868 16.0903 76.7754 17.5777 75.288C19.0651 73.8007 21.4767 73.8007 22.9638 75.288L25.7227 78.047L34.5983 69.1714C36.0854 67.6843 38.497 67.684 39.9844 69.1714C41.4718 70.6591 41.4718 73.0707 39.9844 74.5581ZM39.9844 51.4513L28.4157 63.02C27.7014 63.7343 26.7328 64.1355 25.7227 64.1355C24.7127 64.1355 23.7438 63.7343 23.0298 63.0198L17.5777 57.5677C16.0903 56.0803 16.0903 53.6689 17.5777 52.1815C19.0651 50.6942 21.4767 50.6944 22.9638 52.1815L25.7227 54.9405L34.5983 46.0649C36.0854 44.5776 38.497 44.5776 39.9844 46.0649C41.4718 47.5523 41.4718 49.9639 39.9844 51.4513ZM39.9844 28.3446L28.4157 39.9133C27.7014 40.6275 26.7328 41.0287 25.7227 41.0287C24.7127 41.0287 23.7438 40.6275 23.0298 39.913L17.5777 34.4609C16.0903 32.9735 16.0903 30.5622 17.5777 29.0748C19.0651 27.5874 21.4767 27.5877 22.9638 29.0748L25.7227 31.8337L34.5983 22.9582C36.0854 21.4708 38.497 21.4708 39.9844 22.9582C41.4718 24.4458 41.4718 26.8572 39.9844 28.3446ZM76.2836 106.686H52.0967C49.9934 106.686 48.2881 104.981 48.2881 102.877C48.2881 100.774 49.9934 99.0686 52.0967 99.0686H76.2836C78.387 99.0686 80.0922 100.774 80.0922 102.877C80.0922 104.981 78.3872 106.686 76.2836 106.686ZM76.2836 82.6942H52.0967C49.9934 82.6942 48.2881 80.989 48.2881 78.8856C48.2881 76.7823 49.9934 75.077 52.0967 75.077H76.2836C78.387 75.077 80.0922 76.7823 80.0922 78.8856C80.0922 80.989 78.3872 82.6942 76.2836 82.6942ZM76.2836 59.5877H52.0967C49.9934 59.5877 48.2881 57.8825 48.2881 55.7791C48.2881 53.6758 49.9934 51.9705 52.0967 51.9705H76.2836C78.387 51.9705 80.0922 53.6758 80.0922 55.7791C80.0922 57.8825 78.3872 59.5877 76.2836 59.5877ZM76.2836 36.481H52.0967C49.9934 36.481 48.2881 34.7758 48.2881 32.6724C48.2881 30.569 49.9934 28.8638 52.0967 28.8638H76.2836C78.387 28.8638 80.0922 30.569 80.0922 32.6724C80.0922 34.7758 78.3872 36.481 76.2836 36.481Z" fill="#BBA182"/>
<path d="M130 12.9266C130 5.79896 124.201 0 117.073 0C109.945 0 104.146 5.79896 104.146 12.9266V24.0972H130V12.9266Z" fill="#BBA182"/>
<path d="M104.374 105.029C104.034 105.969 104.076 107.005 104.494 107.914L113.612 127.78C114.233 129.133 115.585 130 117.073 130C118.562 130 119.914 129.133 120.535 127.78L129.653 107.914C130.07 107.005 130.113 105.969 129.773 105.029L127.432 98.5636H106.714L104.374 105.029Z" fill="#BBA182"/>
<path d="M130 87.1378V31.7144H104.146V87.1378C104.146 89.2411 105.852 90.9464 107.955 90.9464H126.191C128.295 90.9464 130 89.2411 130 87.1378Z" fill="#BBA182"/>
</svg>
