<svg width="28" height="30" viewBox="0 0 28 30" fill="none" xmlns="http://www.w3.org/2000/svg">
<path d="M25.4494 8.7085H2.55061C1.1442 8.7085 0 9.8527 0 11.2591V21.4615C0 22.8679 1.1442 24.0121 2.55061 24.0121H25.4494C26.8558 24.0121 28 22.8679 28 21.4615V11.2591C28 9.8527 26.8558 8.7085 25.4494 8.7085ZM6.73026 17.6831C6.51289 17.6831 6.14152 17.6847 5.7939 17.6864V19.6474C5.7939 20.1169 5.41324 20.4976 4.9437 20.4976C4.47416 20.4976 4.0935 20.1169 4.0935 19.6474L4.08097 13.189C4.08024 12.963 4.16951 12.7461 4.329 12.586C4.4885 12.4259 4.70525 12.336 4.93117 12.336H6.73026C8.22412 12.336 9.43951 13.5354 9.43951 15.0096C9.43951 16.4838 8.22412 17.6831 6.73026 17.6831ZM14.0289 20.2926C13.5225 20.3014 12.2558 20.3062 12.2022 20.3064C12.2011 20.3064 12.2 20.3064 12.1989 20.3064C11.9746 20.3064 11.7593 20.2178 11.6 20.0597C11.4399 19.9008 11.3496 19.6848 11.3487 19.4593C11.3487 19.4366 11.336 13.1879 11.336 13.1879C11.3356 12.9621 11.425 12.7454 11.5845 12.5856C11.744 12.4259 11.9605 12.336 12.1862 12.336H13.962C15.9851 12.336 17.3442 13.9376 17.3442 16.3213C17.3442 18.5888 15.9499 20.259 14.0289 20.2926ZM22.7412 15.4166C23.2108 15.4166 23.5914 15.7973 23.5914 16.2668C23.5914 16.7363 23.2108 17.117 22.7412 17.117H21.1984V19.5344C21.1984 20.0039 20.8177 20.3846 20.3482 20.3846C19.8786 20.3846 19.498 20.0039 19.498 19.5344V13.1206C19.498 12.6511 19.8786 12.2704 20.3482 12.2704H22.9477C23.4172 12.2704 23.7979 12.6511 23.7979 13.1206C23.7979 13.5901 23.4172 13.9708 22.9477 13.9708H21.1984V15.4166H22.7412Z" fill="#1A1821"/>
<path d="M13.962 14.0361H13.038C13.0393 14.8036 13.0439 17.8628 13.0463 18.6013C13.4001 18.5991 13.7789 18.5959 13.9991 18.5921C15.1353 18.5722 15.6439 17.4371 15.6439 16.321C15.6438 15.7849 15.5226 14.0361 13.962 14.0361Z" fill="#1A1821"/>
<path d="M6.73027 14.0361H5.78394C5.78496 14.4145 5.78592 14.817 5.78592 15.0093C5.78592 15.234 5.78751 15.6238 5.78932 15.9858C6.13824 15.984 6.51097 15.9824 6.73032 15.9824C7.27717 15.9824 7.73917 15.5368 7.73917 15.0093C7.73917 14.4818 7.27712 14.0361 6.73027 14.0361Z" fill="#1A1821"/>
<path d="M24.5683 7.00796C24.3712 6.4678 24.0651 5.96856 23.6599 5.54108L20.1284 1.81601C19.3293 0.973171 18.2049 0.489746 17.0434 0.489746H5.72468C4.31827 0.489746 3.17407 1.63395 3.17407 3.04035V7.00796H24.5683Z" fill="#1A1821"/>
<path d="M3.17407 25.7124V26.9594C3.17407 28.3658 4.31827 29.51 5.72468 29.51H22.2753C23.6817 29.51 24.8259 28.3658 24.8259 26.9594V25.7124H3.17407Z" fill="#1A1821"/>
</svg>
