<svg width="57" height="57" viewBox="0 0 57 57" fill="none" xmlns="http://www.w3.org/2000/svg">
<g filter="url(#filter0_d)">
<path d="M35.8661 38.0465L35.8761 38.0365L38.9176 35.0161C38.9178 35.0159 38.918 35.0156 38.9183 35.0154C39.0673 34.866 39.1175 34.7182 39.0979 34.5359C39.0665 34.4003 38.9782 34.2618 38.7603 34.1257L34.4673 31.5883H34.4425L34.3237 31.5169C34.2767 31.4887 34.1711 31.4509 33.9634 31.4509C33.7255 31.4509 33.5268 31.5245 33.3463 31.6807L32.0552 32.9954L32.0521 32.9985C31.9414 33.1092 31.8065 33.1666 31.7081 33.1994L31.7078 33.1995C31.6392 33.2224 31.5207 33.2595 31.4009 33.2595H31.3514L31.3027 33.2498L31.0172 33.1926C31.0171 33.1926 31.0169 33.1925 31.0168 33.1925C30.7549 33.1402 30.4291 33.0022 30.0639 32.8156C29.6721 32.6154 29.2018 32.312 28.6585 31.916L28.6584 31.9159C28.0952 31.5052 27.4649 30.94 26.769 30.2284C26.0582 29.5323 25.4965 28.905 25.0933 28.3482C24.7052 27.8123 24.4063 27.3423 24.2062 26.9425C23.9798 26.5052 23.8216 26.0928 23.7488 25.7103L23.74 25.6639V25.6168C23.74 25.4954 23.7687 25.3807 23.7999 25.2871C23.7999 25.287 23.7999 25.287 23.7999 25.287L24.2743 25.4451C24.2972 25.3764 24.3239 25.3268 24.3544 25.2963L25.4754 24.1745C25.6737 23.9761 25.8034 23.7319 25.8644 23.4419L35.8661 38.0465ZM35.8661 38.0465L35.8567 38.057C35.7704 38.1529 35.6472 38.2464 35.4735 38.3302L35.4733 38.3303C35.3001 38.414 35.1391 38.4647 34.989 38.4885C34.9463 38.4911 34.8954 38.4962 34.8522 38.5005L34.8519 38.5006L35.8661 38.0465ZM24.1793 32.8157C23.1262 31.7769 22.2604 30.79 21.5782 29.855L34.8517 38.5006C34.7985 38.5059 34.7176 38.5096 34.6042 38.5096C34.3555 38.5096 33.9191 38.4655 33.2727 38.3665C32.6797 38.2757 31.928 38.0475 31.0093 37.6663L30.8177 38.1282L31.0093 37.6663C30.1086 37.2927 29.073 36.7259 27.8998 35.9584L27.6261 36.3768L27.8998 35.9584C26.7479 35.2048 25.5091 34.1615 24.1839 32.8203L24.1839 32.8202L24.1793 32.8157Z" stroke="#BBA182"/>
</g>
<defs>
<filter id="filter0_d" x="0.990265" y="0.397949" width="55.6116" height="55.6117" filterUnits="userSpaceOnUse" color-interpolation-filters="sRGB">
<feFlood flood-opacity="0" result="BackgroundImageFix"/>
<feColorMatrix in="SourceAlpha" type="matrix" values="0 0 0 0 0 0 0 0 0 0 0 0 0 0 0 0 0 0 127 0"/>
<feOffset/>
<feGaussianBlur stdDeviation="8.5"/>
<feColorMatrix type="matrix" values="0 0 0 0 0.733333 0 0 0 0 0.631373 0 0 0 0 0.509804 0 0 0 1 0"/>
<feBlend mode="normal" in2="BackgroundImageFix" result="effect1_dropShadow"/>
<feBlend mode="normal" in="SourceGraphic" in2="effect1_dropShadow" result="shape"/>
</filter>
</defs>
</svg>
