<svg width="23" height="23" viewBox="0 0 23 23" fill="none" xmlns="http://www.w3.org/2000/svg">
<path d="M18.8661 21.0466L18.8761 21.0367L21.9176 18.0162C21.9177 18.0161 21.9179 18.0159 21.9181 18.0157C22.0672 17.8662 22.1176 17.7184 22.0979 17.536C22.0665 17.4004 21.9782 17.262 21.7602 17.1258L17.4673 14.5884H17.4425L17.3237 14.517C17.2767 14.4888 17.1711 14.451 16.9634 14.451C16.7255 14.451 16.5268 14.5246 16.3463 14.6808L15.0552 15.9955L15.0521 15.9986C14.9414 16.1093 14.8065 16.1667 14.7081 16.1995L14.7078 16.1996C14.6392 16.2225 14.5207 16.2596 14.4009 16.2596H14.3514L14.3027 16.2499L14.0172 16.1927C14.0171 16.1927 14.0169 16.1927 14.0168 16.1926C13.7549 16.1403 13.4291 16.0024 13.0639 15.8158C12.6721 15.6155 12.2018 15.3121 11.6585 14.9161L11.6584 14.916C11.0952 14.5054 10.4649 13.9402 9.769 13.2285C9.05816 12.5324 8.49655 11.9051 8.09334 11.3483C7.70524 10.8124 7.40631 10.3424 7.20618 9.9426C6.97984 9.50528 6.82161 9.0929 6.74879 8.71039L6.73997 8.66406V8.61689C6.73997 8.49553 6.76873 8.3808 6.79992 8.28717C6.83279 8.1885 6.89013 8.05359 7.0007 7.94295L8.12176 6.82116C8.24755 6.69528 8.33285 6.53979 8.37508 6.33906C8.4127 6.16023 8.38835 6.01779 8.31412 5.88573L8.30743 5.87383L8.30759 5.87374L5.86988 1.2459C5.79627 1.13388 5.71061 1.04302 5.61288 0.96968C5.55055 0.922897 5.48145 0.898071 5.3868 0.898071C5.25885 0.898071 5.13844 0.941844 5.00835 1.07202L1.96547 4.11688L1.95618 4.12618L1.94641 4.13498C1.85061 4.22126 1.7572 4.34457 1.6732 4.5187C1.59051 4.6901 1.54 4.8498 1.51587 4.9988C1.51305 5.0769 1.50495 5.22977 1.49331 5.4395C1.48097 5.66169 1.50517 5.99862 1.57942 6.46668C1.65035 6.91386 1.78754 7.45996 1.99628 8.10895C2.19883 8.73874 2.50645 9.45217 2.92428 10.251L2.92429 10.251C3.33714 11.0403 3.88717 11.9081 4.57816 12.8551C5.2604 13.7901 6.12616 14.777 7.17931 15.8158L7.18389 15.8203L7.18386 15.8204C8.50911 17.1616 9.74786 18.2049 10.8998 18.9585L10.6261 19.3769L10.8998 18.9585C12.073 19.726 13.1086 20.2928 14.0093 20.6664L13.8177 21.1283L14.0093 20.6664C14.928 21.0476 15.6797 21.2759 16.2727 21.3666C16.9191 21.4656 17.3555 21.5097 17.6042 21.5097C17.7176 21.5097 17.7985 21.506 17.8517 21.5007L18.8661 21.0466ZM18.8661 21.0466L18.8567 21.0571C18.7704 21.1531 18.6472 21.2465 18.4735 21.3303L18.4733 21.3304C18.3001 21.4141 18.139 21.4648 17.989 21.4886C17.9462 21.4913 17.8954 21.4964 17.8522 21.5007L17.8519 21.5007L18.8661 21.0466Z" stroke="#BBA182"/>
</svg>
