<svg width="177" height="150" viewBox="0 0 177 150" fill="none" xmlns="http://www.w3.org/2000/svg">
<g opacity="0.1">
<path d="M60.9898 0H20.3299C14.6821 0 9.88237 1.9767 5.92861 5.92898C1.9767 9.882 0 14.6817 0 20.3299V60.9883C0 66.6362 1.97558 71.4352 5.92861 75.3874C9.882 79.3393 14.6832 81.3168 20.3299 81.3168H44.0477C46.8703 81.3168 49.2709 82.3055 51.2476 84.2814C53.2243 86.2563 54.2123 88.6576 54.2123 91.4825V94.8688C54.2123 102.352 51.5647 108.738 46.271 114.033C40.977 119.326 34.5892 121.973 27.1056 121.973H20.3299C18.4934 121.973 16.9058 122.645 15.564 123.986C14.2233 125.326 13.5524 126.915 13.5524 128.75V142.305C13.5524 144.137 14.2233 145.729 15.564 147.07C16.9069 148.41 18.4931 149.082 20.3299 149.082H27.106C34.4479 149.082 41.4539 147.651 48.125 144.793C54.7957 141.935 60.5659 138.069 65.4368 133.198C70.3066 128.327 74.1717 122.557 77.0303 115.886C79.8886 109.216 81.3183 102.21 81.3183 94.8692V20.3285C81.3183 14.6802 79.3416 9.88089 75.3893 5.92861C71.437 1.97633 66.6362 0 60.9898 0Z" fill="#1A1821"/>
<path d="M170.259 5.92898C166.307 1.9767 161.507 0 155.859 0H115.201C109.553 0 104.753 1.9767 100.801 5.92898C96.8489 9.88237 94.8729 14.6817 94.8729 20.3299V60.9883C94.8729 66.6362 96.8489 71.4352 100.801 75.3874C104.753 79.3393 109.553 81.3168 115.201 81.3168H138.918C141.741 81.3168 144.143 82.3055 146.12 84.2814C148.094 86.2574 149.084 88.6576 149.084 91.4825V94.8688C149.084 102.352 146.437 108.738 141.142 114.033C135.848 119.326 129.462 121.973 121.978 121.973H115.201C113.366 121.973 111.776 122.645 110.436 123.986C109.095 125.326 108.423 126.915 108.423 128.75V142.305C108.423 144.137 109.095 145.729 110.436 147.07C111.776 148.41 113.365 149.082 115.201 149.082H121.978C129.319 149.082 136.324 147.651 142.996 144.793C149.666 141.935 155.435 138.069 160.306 133.198C165.177 128.327 169.045 122.556 171.901 115.886C174.759 109.217 176.19 102.21 176.19 94.8692V20.3285C176.189 14.6802 174.214 9.88089 170.259 5.92898Z" fill="#1A1821"/>
</g>
</svg>
