<svg width="30" height="26" viewBox="0 0 30 26" fill="none" xmlns="http://www.w3.org/2000/svg">
<path d="M0.529889 12.4669L7.4425 15.0351L10.1181 23.6002C10.2893 24.1488 10.9632 24.3516 11.4105 23.9875L15.2637 20.8608C15.6676 20.5332 16.2429 20.5169 16.665 20.8218L23.6148 25.8444C24.0933 26.1906 24.7712 25.9296 24.8912 25.354L29.9823 0.977435C30.1133 0.348737 29.4927 -0.175743 28.8913 0.0557888L0.521789 10.9496C-0.178312 11.2184 -0.172212 12.205 0.529889 12.4669ZM9.6869 13.668L23.1967 5.38549C23.4395 5.23707 23.6893 5.56387 23.4808 5.75638L12.3313 16.0728C11.9394 16.4359 11.6866 16.9218 11.615 17.4493L11.2352 20.251C11.1849 20.6251 10.657 20.6622 10.5533 20.3002L9.0926 15.1912C8.9253 14.6085 9.1691 13.9861 9.6869 13.668Z" fill="white"/>
</svg>
