<svg width="29" height="32" viewBox="0 0 29 32" fill="none" xmlns="http://www.w3.org/2000/svg">
<path d="M28.7068 18.1916C29.6409 10.328 28.2579 5.36357 25.7633 3.11814L25.7646 3.11683C21.7382 -0.717749 8.1404 -1.2853 3.32336 3.28906C1.16013 5.52666 0.398167 8.81065 0.314665 12.8762C0.231163 16.943 0.132004 24.5613 7.231 26.6279H7.23753L7.231 29.7841C7.231 29.7841 7.18273 31.0627 7.99949 31.3197C8.93367 31.6224 9.3564 31.0288 12.262 27.5582C17.1208 27.9796 20.8523 27.0141 21.2763 26.8732C22.2575 26.5444 27.8091 25.8099 28.7068 18.1916ZM12.7408 25.3376C12.7408 25.3376 9.66562 29.1722 8.70925 30.1677C8.39612 30.4912 8.05298 30.4612 8.0582 29.8193C8.0582 29.3979 8.08168 24.5795 8.08168 24.5795C2.06299 22.8547 2.41788 16.3676 2.48312 12.974C2.54835 9.57913 3.1694 6.79876 5.00123 4.92648C9.22723 0.964039 21.1485 1.84995 24.1859 4.70468C27.8991 7.9965 26.5774 17.2966 26.5853 17.6136C25.822 23.9728 21.3233 24.376 20.4961 24.6513C20.1425 24.7687 16.8612 25.6129 12.7408 25.3376Z" fill="#1A1821"/>
<path d="M14.4422 5.67139C13.9399 5.67139 13.9399 6.45422 14.4422 6.46074C18.3394 6.49075 21.549 9.20719 21.5842 14.1899C21.5842 14.7157 22.354 14.7092 22.3475 14.1834H22.3462C22.3044 8.81447 18.7999 5.7014 14.4422 5.67139Z" fill="#1A1821"/>
<path d="M19.5685 13.364C19.5567 13.8833 20.3252 13.9081 20.3317 13.3823C20.3957 10.4219 18.5704 7.98336 15.1402 7.72633C14.6379 7.6898 14.5857 8.47915 15.0868 8.51568C18.0615 8.7414 19.6285 10.7716 19.5685 13.364Z" fill="#1A1821"/>
<path d="M18.7465 16.7315C18.102 16.3583 17.4457 16.5906 17.1743 16.9572L16.6068 17.6918C16.3184 18.0649 15.7796 18.0153 15.7796 18.0153C11.8472 16.9755 10.7956 12.8604 10.7956 12.8604C10.7956 12.8604 10.7473 12.3032 11.1074 12.0045L11.8172 11.4173C12.172 11.1355 12.3965 10.4571 12.035 9.79035C11.0695 8.04594 10.4211 7.44446 10.091 6.98259C9.74395 6.54811 9.22206 6.45026 8.67929 6.74382H8.66755C7.53897 7.40401 6.30339 8.63959 6.69872 9.91169C7.37327 11.2529 8.61275 15.5285 12.5635 18.759C14.4201 20.2869 17.3583 21.8525 18.6056 22.2139L18.6174 22.2322C19.8464 22.6419 21.0415 21.358 21.6796 20.1955V20.1864C21.9627 19.6241 21.8687 19.0917 21.4551 18.7434C20.7219 18.0284 19.6155 17.239 18.7465 16.7315Z" fill="#1A1821"/>
<path d="M15.6778 10.6383C16.9316 10.7114 17.5396 11.3664 17.6048 12.7115C17.6283 13.2373 18.3916 13.2008 18.3681 12.675C18.2846 10.9189 17.3687 9.94031 15.7195 9.84898C15.2172 9.81897 15.1702 10.6083 15.6778 10.6383Z" fill="#1A1821"/>
</svg>
