<svg width="32" height="32" viewBox="0 0 32 32" fill="none" xmlns="http://www.w3.org/2000/svg">
<path fill-rule="evenodd" clip-rule="evenodd" d="M27.3377 4.6503C24.3296 1.65312 20.329 0.00168461 16.0668 0C7.28468 0 0.13711 7.11286 0.133596 15.8557C0.132424 18.6504 0.866139 21.3784 2.26037 23.783L0 32L8.44643 29.795C10.7736 31.0582 13.3938 31.7239 16.0604 31.7251H16.067C24.8482 31.7251 31.9964 24.6113 32 15.8684C32.0017 11.6315 30.346 7.64748 27.3377 4.6503ZM16.067 29.0469H16.0616C13.6853 29.046 11.3546 28.4107 9.32134 27.2099L8.83772 26.9242L3.82555 28.2327L5.16342 23.3693L4.8485 22.8707C3.52287 20.7723 2.8227 18.3469 2.82374 15.8567C2.82664 8.59 8.76747 2.6781 16.0722 2.6781C19.6094 2.67944 22.9344 4.05214 25.4348 6.54329C27.9351 9.03444 29.3112 12.3458 29.3099 15.8673C29.3069 23.1346 23.3661 29.0469 16.067 29.0469ZM23.331 19.1762C22.9329 18.9779 20.9756 18.0194 20.6106 17.8872C20.2457 17.7549 19.9804 17.6888 19.7149 18.0855C19.4495 18.4821 18.6866 19.3746 18.4543 19.639C18.2221 19.9034 17.9899 19.9365 17.5917 19.7382C17.1936 19.5398 15.9109 19.1215 14.3902 17.7717C13.2068 16.7211 12.4077 15.4236 12.1755 15.0269C11.9433 14.6303 12.1508 14.4158 12.3501 14.2183C12.5292 14.0408 12.7482 13.7556 12.9473 13.5242C13.1463 13.2928 13.2126 13.1276 13.3453 12.8632C13.478 12.5987 13.4117 12.3673 13.3122 12.169C13.2126 11.9707 12.4165 10.0205 12.0847 9.22726C11.7616 8.45467 11.4333 8.5592 11.1889 8.54711C10.957 8.53562 10.6913 8.53316 10.4259 8.53316C10.1605 8.53316 9.72924 8.63233 9.36429 9.02895C8.99939 9.42561 7.97097 10.3842 7.97097 12.3343C7.97097 14.2844 9.39748 16.1684 9.59656 16.4329C9.79558 16.6973 12.4038 20.6993 16.3974 22.4155C17.3473 22.8237 18.0889 23.0674 18.667 23.2501C19.6208 23.5516 20.4886 23.509 21.1746 23.4071C21.9395 23.2933 23.53 22.4486 23.8618 21.5231C24.1936 20.5976 24.1936 19.8043 24.094 19.639C23.9945 19.4738 23.7291 19.3746 23.331 19.1762Z" fill="white"/>
</svg>
